<?xml version="1.0" encoding="utf-8"?>
<!-- Generator: Adobe Illustrator 22.0.1, SVG Export Plug-In . SVG Version: 6.00 build 0)  -->
<svg version="1.1" id="Layer_1" xmlns="http://www.w3.org/2000/svg" xmlns:xlink="http://www.w3.org/1999/xlink" x="0px" y="0px"
	 viewBox="0 0 100 100" style="enable-background:new 0 0 100 100;" xml:space="preserve">
<g>
	<circle style="opacity:0.8;fill:none;stroke:#64B9E8;stroke-miterlimit:10;" cx="50" cy="50" r="49.2"/>
	<circle style="opacity:0.8;fill:#64B9E8;" cx="50" cy="50" r="45.3"/>
	<path style="fill:#FFFFFF;stroke:#989898;stroke-miterlimit:10;" d="M84.3,44.9l-1.7-0.8l-4.3-1.9L64.8,36l7.3-5.2
		c-0.4-0.5-0.8-0.9-1.3-1.4c-5.5-5.5-12.9-8.6-20.7-8.6c-7.8,0-15.2,3-20.7,8.6c-4.6,4.6-7.5,10.5-8.3,16.9
		c-0.2,1.3-0.2,2.5-0.2,3.8c0,0.1,0,0.1,0,0.2l-3.7-1.7c0.1-1.3,0.2-2.6,0.4-3.9c0.4-2.5,1.1-5,2.1-7.4c1.7-3.9,4-7.5,7.1-10.5
		c3-3,6.6-5.4,10.5-7.1c4.1-1.7,8.4-2.6,12.8-2.6c4.4,0,8.8,0.9,12.8,2.6c3.9,1.7,7.5,4,10.5,7.1c0.6,0.6,1.2,1.2,1.7,1.8l7.1-5.1
		L84.3,44.9z"/>
	<path style="fill:#FFFFFF;stroke:#989898;stroke-miterlimit:10;" d="M83,53.1L83,53.1c-0.1,1.3-0.3,2.6-0.6,3.8
		c-0.4,2-1.1,4.1-1.9,6c-1.3,3-3,5.8-5.1,8.3c-0.6,0.7-1.3,1.5-2,2.2c-0.2,0.2-0.5,0.5-0.7,0.7c-2.9,2.7-6.2,4.9-9.8,6.4
		c-4.1,1.7-8.4,2.6-12.8,2.6c-4.4,0-8.8-0.9-12.8-2.6c-3.9-1.7-7.5-4-10.5-7.1c-0.6-0.6-1.2-1.3-1.8-1.9l-7.2,5.1l-1.9-21.3l1.8,0.8
		l4.3,2l13.4,6.2l-7.2,5.1c0.4,0.5,0.9,1,1.4,1.5c5.5,5.5,12.9,8.6,20.7,8.6c7,0,13.7-2.5,18.9-7c0.6-0.5,1.2-1.1,1.8-1.6
		c0.4-0.4,0.7-0.8,1.1-1.2c3.6-4.1,6-9,7-14.3c0.2-1.3,0.4-2.6,0.4-3.9L83,53.1z"/>
	<g>
		<g>
			<path style="fill:none;stroke:#FFFFFF;stroke-miterlimit:10;" d="M66.9,43.1c-3.8,3-21.3,17-22.3,17.8c0,0-0.1,0-0.1,0l-5.7,1.1
				c-0.2,0-0.3-0.1-0.3-0.3l2.1-5.4l0.1-0.1c0,0,21.6-16.7,22.7-17.6C64.5,37.9,67.9,42.4,66.9,43.1z"/>
			<line style="fill:none;stroke:#FFFFFF;stroke-miterlimit:10;" x1="61.1" y1="40.6" x2="64.5" y2="45"/>
		</g>
		<line style="fill:none;stroke:#FFFFFF;stroke-miterlimit:10;" x1="40.8" y1="56.3" x2="44.6" y2="61.1"/>
	</g>
</g>
</svg>
