<?xml version="1.0" encoding="utf-8"?>
<!-- Generator: Adobe Illustrator 22.0.1, SVG Export Plug-In . SVG Version: 6.00 build 0)  -->
<svg version="1.1" id="Layer_1" xmlns="http://www.w3.org/2000/svg" xmlns:xlink="http://www.w3.org/1999/xlink" x="0px" y="0px"
	 viewBox="0 0 100 100" style="enable-background:new 0 0 100 100;" xml:space="preserve">
<g>
	<circle style="opacity:0.88;fill:none;stroke:#D76E6F;stroke-miterlimit:10;" cx="50" cy="50" r="49.2"/>
	<circle style="opacity:0.88;fill:#D76E6F;" cx="50" cy="50" r="45.3"/>
	<path style="fill:#FFFFFF;stroke:#989898;stroke-miterlimit:10;" d="M29.7,72.4L29.7,72.4c-1.8,3.8-4.4,7.2-7.6,9.9
		c1.8,0.3,3.7,0.5,5.6,0.5c5.2,0,10.1-1.3,14.4-3.7c2.5,0.7,5.2,1.1,7.9,1.1c16.7,0,30.2-13.5,30.2-30.2S66.7,19.9,50,19.9
		c-5.2,0-10.1,1.3-14.4,3.7c-5.6,3-10.1,7.8-12.8,13.5c-1.9,3.9-2.9,8.3-2.9,13C19.8,58.9,23.6,66.9,29.7,72.4L29.7,72.4"/>
	<g>
		<path style="fill:#D76E6F;" d="M45,41.9h-6.2c0-3.1,1-5.6,3.1-7.6c2.1-2,4.9-3,8.4-3c2.2,0,4.1,0.4,5.7,1.2c1.6,0.8,2.8,2,3.8,3.6
			c0.9,1.6,1.4,3.2,1.4,4.9c0,0.9-0.2,1.9-0.5,2.8c-0.3,0.9-0.8,1.8-1.4,2.8c-0.4,0.6-1.3,1.5-2.7,2.8c-1.4,1.3-2.2,2.1-2.6,2.7
			c-0.3,0.5-0.6,1.2-0.9,2.1c-0.2,0.9-0.4,2-0.5,3.6h-6.4l0-1.1c0-2.1,0.4-4.1,1.2-5.8c0.8-1.7,2-3.4,3.8-4.9c1.7-1.5,2.7-2.5,3-3
			c0.3-0.6,0.5-1.2,0.5-2c0-1-0.4-1.9-1.3-2.6c-0.8-0.7-2-1.1-3.4-1.1c-1.5,0-2.7,0.4-3.6,1.3C45.5,39.5,45,40.6,45,41.9z
			 M49.5,60.4c1.2,0,2.1,0.4,3,1.2c0.8,0.8,1.2,1.8,1.2,2.9c0,1.1-0.4,2.1-1.2,2.9c-0.8,0.8-1.8,1.2-2.9,1.2c-1.1,0-2.1-0.4-2.9-1.2
			c-0.8-0.8-1.2-1.8-1.2-2.9c0-1.1,0.4-2.1,1.2-2.9C47.5,60.8,48.4,60.4,49.5,60.4z"/>
	</g>
</g>
</svg>
