<?xml version="1.0" encoding="utf-8"?>
<!-- Generator: Adobe Illustrator 22.0.1, SVG Export Plug-In . SVG Version: 6.00 build 0)  -->
<svg version="1.1" id="Layer_1" xmlns="http://www.w3.org/2000/svg" xmlns:xlink="http://www.w3.org/1999/xlink" x="0px" y="0px"
	 viewBox="0 0 100 100" style="enable-background:new 0 0 100 100;" xml:space="preserve">
<g>
	<path style="opacity:0.65;fill:none;stroke:#6AB4E3;stroke-miterlimit:10;" d="M50,99.2C22.9,99.2,0.8,77.1,0.8,50
		C0.8,22.9,22.9,0.8,50,0.8S99.2,22.9,99.2,50C99.2,77.1,77.1,99.2,50,99.2z"/>
	<circle style="opacity:0.65;fill:#6AB4E3;" cx="50" cy="50" r="45.3"/>
	<g>
		<line style="fill:none;stroke:#F6EB16;stroke-miterlimit:10;" x1="75.4" y1="74.3" x2="75.4" y2="74.3"/>
		<g id="XMLID_1_">
			<g>
				<path style="fill:#CCCCCC;" d="M19.5,32.7v-8.2c0-0.3,0.2-0.5,0.5-0.5h60c0.3,0,0.5,0.2,0.5,0.5v8.2H19.6H19.5z"/>
				<path style="fill:#FFFFFF;" d="M19.5,32.7h0.1h60.9v42.7c0,0.3-0.2,0.5-0.5,0.5H20c-0.3,0-0.5-0.2-0.5-0.5V32.7z"/>
			</g>
			<g>
				<path style="fill:none;stroke:#979797;stroke-miterlimit:10;" d="M80.5,32.7v42.7c0,0.3-0.2,0.5-0.5,0.5H20
					c-0.3,0-0.5-0.2-0.5-0.5V32.7v-8.2c0-0.3,0.2-0.5,0.5-0.5h60c0.3,0,0.5,0.2,0.5,0.5V32.7z"/>
				<polyline style="fill:none;stroke:#979797;stroke-miterlimit:10;" points="19.6,32.7 80.5,32.7 80.5,32.7 				"/>
			</g>
		</g>
		<path style="fill:none;stroke:#FFFFFF;stroke-width:0.25;stroke-miterlimit:10;" d="M72.9,29.5H46c-0.6,0-1-0.5-1-1
			c0-0.6,0.5-1,1-1h26.9c0.6,0,1,0.5,1,1C74,29,73.5,29.5,72.9,29.5z"/>
		<ellipse style="fill:#ED2E31;" cx="25.5" cy="28.5" rx="1.2" ry="1.2"/>
		<ellipse style="fill:#EED31B;" cx="30" cy="28.5" rx="1.2" ry="1.2"/>
		<ellipse style="fill:#3EB449;" cx="34.3" cy="28.5" rx="1.2" ry="1.2"/>
		<circle style="fill:#28A8E0;stroke:#929497;stroke-width:0.5;stroke-miterlimit:10;" cx="35.7" cy="49.1" r="4.1"/>
		<path style="fill:#28A8E0;stroke:#929497;stroke-width:0.5;stroke-miterlimit:10;" d="M38.5,53.1h-5.4c-3,0-5.4,2.4-5.4,5.4v2.8
			c0,1.1,0.9,2,2,2h12.2c1.1,0,2-0.9,2-2v-2.8C43.9,55.5,41.4,53.1,38.5,53.1z"/>
		<rect x="48" y="46.1" style="fill:#BBCBD3;" width="25.5" height="3"/>
		<rect x="48" y="52.7" style="fill:#BBCBD3;" width="25.5" height="3"/>
		<rect x="48" y="59.2" style="fill:#BBCBD3;" width="25.5" height="3"/>
		
			<circle style="fill:#74C5A1;stroke:#979797;stroke-width:0.5;stroke-linejoin:round;stroke-miterlimit:10;" cx="71.2" cy="66.6" r="8.4"/>
		<polyline style="fill:none;stroke:#FFFFFF;stroke-linecap:round;stroke-linejoin:round;stroke-miterlimit:10;" points="74.5,63.4 
			71.1,69.7 67.9,67.3 		"/>
	</g>
</g>
</svg>
