<?xml version="1.0" encoding="utf-8"?>
<!-- Generator: Adobe Illustrator 22.0.1, SVG Export Plug-In . SVG Version: 6.00 build 0)  -->
<svg version="1.1" id="Layer_1" xmlns="http://www.w3.org/2000/svg" xmlns:xlink="http://www.w3.org/1999/xlink" x="0px" y="0px"
	 viewBox="0 0 100 100" style="enable-background:new 0 0 100 100;" xml:space="preserve">
<circle style="opacity:0.65;fill:none;stroke:#F37253;stroke-miterlimit:10;" cx="50" cy="50" r="49.2"/>
<circle style="opacity:0.65;fill:#F37253;" cx="50" cy="50" r="45.3"/>
<g>
	<circle style="fill:#FFFFFF;stroke:#919495;stroke-width:0.5;stroke-miterlimit:10;" cx="21.9" cy="41.5" r="6.5"/>
	<path style="fill:#FFFFFF;stroke:#919495;stroke-width:0.5;stroke-miterlimit:10;" d="M26.3,47.9h-8.6c-4.7,0-8.6,3.9-8.6,8.6v4.4
		c0,1.8,1.5,3.2,3.2,3.2h19.5c1.8,0,3.2-1.5,3.2-3.2v-4.4C34.9,51.7,31,47.9,26.3,47.9z"/>
	<g>
		<path style="fill:#D0D2D3;stroke:#969595;stroke-miterlimit:10;" d="M90.9,53.1V47l-8.4-1.9c-0.6-3-1.8-5.8-3.5-8.4l4.6-7.3
			l-4.3-4.3L72,29.8c-2.5-1.6-5.3-2.8-8.3-3.5l-1.9-8.6h-6.1l-1.9,8.6c-3,0.6-5.8,1.8-8.3,3.5l-7.3-4.6l-4.3,4.3l4.6,7.3
			c-1.6,2.5-2.8,5.3-3.5,8.3L26.4,47v6.1l8.6,1.9c0.6,3,1.8,5.8,3.4,8.3l-4.7,7.4l4.3,4.3l7.4-4.7c2.5,1.6,5.3,2.8,8.3,3.4l1.9,8.4
			h6.1l1.9-8.4c3-0.6,5.8-1.8,8.3-3.4l7.4,4.7l4.3-4.3L79,63.3c1.6-2.5,2.8-5.3,3.4-8.3L90.9,53.1z"/>
		<circle style="fill:#FFFFFF;stroke:#929497;stroke-miterlimit:10;" cx="58.7" cy="50.1" r="15.3"/>
	</g>
	<g>
		<rect x="47.2" y="42.7" style="fill:#BAC9D2;" width="23" height="2.7"/>
		<rect x="47.2" y="48.6" style="fill:#BAC9D2;" width="23" height="2.7"/>
		<rect x="47.2" y="54.5" style="fill:#BAC9D2;" width="23" height="2.7"/>
	</g>
</g>
</svg>
