<?xml version="1.0" encoding="utf-8"?>
<!-- Generator: Adobe Illustrator 22.0.1, SVG Export Plug-In . SVG Version: 6.00 build 0)  -->
<svg version="1.1" id="Layer_1" xmlns="http://www.w3.org/2000/svg" xmlns:xlink="http://www.w3.org/1999/xlink" x="0px" y="0px"
	 viewBox="0 0 100 100" style="enable-background:new 0 0 100 100;" xml:space="preserve">
<path style="fill:none;stroke:#EEC430;stroke-miterlimit:10;" d="M50,99.2C22.9,99.2,0.8,77.1,0.8,50C0.8,22.9,22.9,0.8,50,0.8
	c27.1,0,49.2,22.1,49.2,49.2C99.2,77.1,77.1,99.2,50,99.2z"/>
<circle style="fill:#EEC430;" cx="50" cy="50" r="45.3"/>
<ellipse transform="matrix(0.1358 -0.9907 0.9907 0.1358 -15.339 100.8242)" style="fill:none;stroke:#55A4DB;stroke-width:0.25;stroke-miterlimit:10;" cx="50.1" cy="59.2" rx="2" ry="2"/>
<path style="fill:#FFFFFF;stroke:#989898;stroke-miterlimit:10;" d="M80.9,76.4H19.8c-0.3,0-0.5-0.2-0.5-0.5v-52
	c0-0.3,0.2-0.5,0.5-0.5h61.1c0.3,0,0.5,0.2,0.5,0.5v52C81.5,76.2,81.2,76.4,80.9,76.4z"/>
<path style="fill:#C8B299;stroke:#8D633A;stroke-width:0.25;stroke-linecap:round;stroke-linejoin:round;stroke-miterlimit:10;" d="
	M56.4,36.6c-6.7-0.4-12.8,4.5-13.7,11.3c-1,7.2,4,13.8,11.2,14.8c5.9,0.8,11.5-2.5,13.8-7.7c0.5-1.1,0.8-2.3,1-3.5
	c0.2-1.1,0.2-2.2,0-3.3c0,0,0,0,0,0c-0.1-1-0.3-2.2-0.7-3c0,0,0,0,0,0c-2.3,0.2-4.6-1.1-5.4-3.3c-2.5,0.4-5-1-5.9-3.5
	C56.5,37.7,56.4,37.1,56.4,36.6z"/>
<circle style="fill:#C8B299;stroke:#8D633A;stroke-width:0.25;stroke-linecap:round;stroke-linejoin:round;stroke-miterlimit:10;" cx="47" cy="59.6" r="13.4"/>
<ellipse transform="matrix(0.1358 -0.9907 0.9907 0.1358 3.2185 88.2734)" style="fill:none;stroke:#8D633A;stroke-width:0.25;stroke-miterlimit:10;" cx="52.2" cy="42.3" rx="2.2" ry="2.2"/>
<ellipse style="fill:none;stroke:#8D633A;stroke-width:0.25;stroke-miterlimit:10;" cx="41.2" cy="64.8" rx="2.2" ry="2.2"/>
<ellipse style="fill:none;stroke:#8D633A;stroke-width:0.25;stroke-miterlimit:10;" cx="51" cy="67.1" rx="2.2" ry="2.2"/>
<ellipse transform="matrix(0.1358 -0.9907 0.9907 0.1358 -19.1344 88.7328)" style="fill:none;stroke:#8D633A;stroke-width:0.25;stroke-miterlimit:10;" cx="41.3" cy="55.3" rx="2.2" ry="2.2"/>
<ellipse transform="matrix(0.1358 -0.9907 0.9907 0.1358 4.7085 107.0575)" style="fill:none;stroke:#8D633A;stroke-width:0.25;stroke-miterlimit:10;" cx="63.7" cy="50.8" rx="2.2" ry="2.2"/>
<path style="fill:none;stroke:#8D633A;stroke-width:0.25;stroke-miterlimit:10;" d="M60.2,42c-0.3,0.3-0.5,0.7-0.6,1.1
	c-0.2,1.2,0.5,2.4,1.7,2.6c1.1,0.2,2.3-0.5,2.6-1.6"/>
<ellipse transform="matrix(0.1358 -0.9907 0.9907 0.1358 -8.7805 94.1904)" style="fill:none;stroke:#8D633A;stroke-width:0.25;stroke-miterlimit:10;" cx="49.6" cy="52.1" rx="2.2" ry="2.2"/>
<ellipse transform="matrix(0.1358 -0.9907 0.9907 0.1358 -10.6497 105.5401)" style="fill:none;stroke:#8D633A;stroke-width:0.25;stroke-miterlimit:10;" cx="55.2" cy="58.9" rx="2.2" ry="2.2"/>
<line style="fill:none;stroke:#989898;stroke-miterlimit:10;" x1="19.5" y1="32.4" x2="81.1" y2="32.4"/>
<rect x="19.7" y="23.9" style="fill:#CCCCCC;" width="61.3" height="8"/>
<path style="fill:none;stroke:#FFFFFF;stroke-width:0.25;stroke-miterlimit:10;" d="M73.8,29H46.3c-0.6,0-1.1-0.5-1.1-1.1
	c0-0.6,0.5-1.1,1.1-1.1h27.4c0.6,0,1.1,0.5,1.1,1.1C74.8,28.5,74.3,29,73.8,29z"/>
<ellipse style="fill:#EE2D30;" cx="25.3" cy="28" rx="1.2" ry="1.2"/>
<ellipse style="fill:#EFD414;" cx="30" cy="28" rx="1.2" ry="1.2"/>
<ellipse style="fill:#3DB54A;" cx="34.7" cy="28" rx="1.2" ry="1.2"/>
</svg>
