<?xml version="1.0" encoding="utf-8"?>
<!-- Generator: Adobe Illustrator 22.0.1, SVG Export Plug-In . SVG Version: 6.00 build 0)  -->
<svg version="1.1" id="Layer_1" xmlns="http://www.w3.org/2000/svg" xmlns:xlink="http://www.w3.org/1999/xlink" x="0px" y="0px"
	 viewBox="0 0 100 100" style="enable-background:new 0 0 100 100;" xml:space="preserve">
<g>
	<path style="fill:none;stroke:#609AAE;stroke-miterlimit:10;" d="M50,99.2C22.9,99.2,0.8,77.1,0.8,50C0.8,22.9,22.9,0.8,50,0.8
		c27.1,0,49.2,22.1,49.2,49.2C99.2,77.1,77.1,99.2,50,99.2z"/>
	<path style="fill:#609AAE;" d="M95.3,50C95.3,75,75,95.3,50,95.3c-14,0-26.5-6.3-34.8-16.3l14-7.1l-7.1-15.5l-0.5-1L6,60.9
		C5.2,57.4,4.7,53.8,4.7,50C4.7,25,25,4.7,50,4.7C75,4.7,95.3,25,95.3,50z"/>
	
		<line style="fill:none;stroke:#979797;stroke-width:7;stroke-linejoin:round;stroke-miterlimit:10;" x1="38" y1="50.8" x2="38" y2="50.8"/>
	<g id="XMLID_4_">
		<g>
			<polygon style="fill:#FFFFFF;" points="75.9,20.5 86.9,72.3 40.1,82.2 28.9,29.6 27.1,21.1 64.7,13.1 66.7,22.4 75.8,20.5 			"/>
			<polygon style="fill:#BBCBD3;" points="75.9,20.3 75.9,20.5 75.8,20.5 66.7,22.4 64.7,13.1 			"/>
		</g>
		<g>
			<polygon style="fill:none;stroke:#979797;stroke-miterlimit:10;" points="64.7,13.1 27.1,21.1 28.9,29.6 40.1,82.2 86.9,72.3 
				75.9,20.5 75.9,20.3 			"/>
			<polyline style="fill:none;stroke:#979797;stroke-miterlimit:10;" points="75.8,20.5 66.7,22.4 64.7,13.1 			"/>
		</g>
	</g>
	
		<rect x="37.7" y="30.5" transform="matrix(0.9781 -0.2083 0.2083 0.9781 -5.4372 11.9673)" style="fill:#BBCBD3;" width="32.8" height="2.6"/>
	
		<rect x="38.9" y="36.1" transform="matrix(0.9781 -0.2083 0.2083 0.9781 -6.5744 12.3375)" style="fill:#BBCBD3;" width="32.8" height="2.6"/>
	
		<rect x="41.1" y="46.7" transform="matrix(0.9781 -0.2083 0.2083 0.9781 -8.7323 12.9973)" style="fill:#BBCBD3;" width="32.4" height="2.6"/>
	<polygon style="fill:#BBCBD3;" points="58.1,52.3 42.4,55.6 42.9,58.2 55.3,55.5 74.6,51.4 70.9,51.5 60.3,53.8 59.9,51.9 	"/>
	
		<rect x="43.6" y="59.2" transform="matrix(0.9781 -0.2083 0.2083 0.9781 -11.436 12.3789)" style="fill:#BBCBD3;" width="18.8" height="2.6"/>
	
		<rect x="40" y="41.3" transform="matrix(0.9781 -0.2083 0.2083 0.9781 -7.644 12.6859)" style="fill:#BBCBD3;" width="32.8" height="2.6"/>
	<path style="fill:#F8BF74;stroke:#979797;stroke-width:0.5;stroke-linejoin:round;stroke-miterlimit:10;" d="M77.9,66.8l-3.3-15.3
		L74.5,51c0-0.1-0.1-0.2-0.3-0.2l-3.4,0.7l-10.5,2.2l-0.4-1.9l-0.2-1.1c-0.5-2.5,1.1-4.9,3.5-5.5c1.2-0.3,2.5,0,3.5,0.6
		c1,0.6,1.7,1.7,2,2.9l0.1,0.5l1.8-0.4l-0.1-0.5c-0.7-3.5-4.2-5.7-7.6-5c-3.5,0.7-5.7,4.2-5,7.6l0.2,1.1l0.4,1.9l-3.1,0.7
		c-0.1,0-0.2,0.1-0.2,0.3l0.1,0.4l3.3,15.3c0,0.1,0.1,0.2,0.3,0.2l18.8-4C77.8,67,77.9,66.9,77.9,66.8z"/>
	<path style="fill:#FFFFFF;stroke:#979797;stroke-width:0.5;stroke-linejoin:round;stroke-miterlimit:10;" d="M69.7,59.3
		c0.3,1.3-0.3,2.6-1.3,3.3l0.5,2.4c0.1,0.7-0.3,1.3-0.9,1.5c-0.7,0.1-1.3-0.3-1.5-0.9L66,63.1c-1.2-0.2-2.3-1.2-2.5-2.5
		c-0.4-1.7,0.7-3.4,2.5-3.8C67.6,56.5,69.3,57.6,69.7,59.3z"/>
	<path style="fill:#FFFFFF;stroke:#979797;stroke-miterlimit:10;" d="M22.1,56.3l2.3-1.4c0,0,2-7.9,2.4-9.9c0.4-2,1-2.7,1-2.7
		l8.8-6.1c0,0,2,0.9,1.3,2.6s-5.4,6-5.4,6L37,67.6h-5.4l-3.4,2.1"/>
	<path style="fill:#B4B4B4;stroke:#979797;stroke-miterlimit:10;" d="M28.7,71.8l-13.2,6.8c-4.3-5.2-7.8-12.4-9.4-19.1l15-4.2l0.5,1
		L28.7,71.8z"/>
</g>
</svg>
