<?xml version="1.0" encoding="utf-8"?>
<!-- Generator: Adobe Illustrator 22.0.1, SVG Export Plug-In . SVG Version: 6.00 build 0)  -->
<svg version="1.1" id="Layer_1" xmlns="http://www.w3.org/2000/svg" xmlns:xlink="http://www.w3.org/1999/xlink" x="0px" y="0px"
	 viewBox="0 0 100 100" style="enable-background:new 0 0 100 100;" xml:space="preserve">
<circle style="opacity:0.59;fill:none;stroke:#F79421;stroke-miterlimit:10;" cx="50" cy="50" r="49.2"/>
<circle style="opacity:0.59;fill:#F79421;" cx="50" cy="50" r="45.3"/>
<path style="fill:#74C6A2;stroke:#989898;stroke-linejoin:round;stroke-miterlimit:10;" d="M49.9,87.8c-2.3-1-28.8-12-29.2-37.4
	c-0.1-8-0.1-29.9-0.1-29.9s14.3,0.2,29.4-8.3c15.1,8.4,29.4,8.3,29.4,8.3s0,22-0.1,29.9c-0.4,25.4-27,36.4-29.2,37.4
	c0,0-0.1,0-0.1,0.1C50,87.8,50,87.8,49.9,87.8C50,87.8,50,87.8,49.9,87.8C49.9,87.8,49.9,87.8,49.9,87.8z"/>
<line style="fill:none;stroke:#F6EB16;stroke-width:0.5;stroke-miterlimit:10;" x1="50" y1="50" x2="50" y2="50"/>
<line style="fill:none;stroke:#989898;stroke-linejoin:round;stroke-miterlimit:10;" x1="50" y1="50" x2="50" y2="50"/>
<line style="fill:none;stroke:#989898;stroke-linejoin:round;stroke-miterlimit:10;" x1="50" y1="50" x2="50" y2="50"/>
<line style="fill:none;stroke:#989898;stroke-linejoin:round;stroke-miterlimit:10;" x1="50" y1="50" x2="50" y2="50"/>
<g>
	<path style="fill:#FFFFFF;stroke:#979797;stroke-width:0.75;stroke-linejoin:round;stroke-miterlimit:10;" d="M63.9,44.9h-4.6v-4.5
		c0-5.1-4.2-9.3-9.3-9.3c-5.1,0-9.3,4.2-9.3,9.3v4.5h-4.6c-0.2,0-0.3,0.1-0.3,0.3v23.3c0,0.2,0.1,0.3,0.3,0.3h27.8
		c0.2,0,0.3-0.1,0.3-0.3V45.3C64.2,45.1,64.1,44.9,63.9,44.9z M43.4,44.9v-4.5c0-3.7,3-6.6,6.6-6.6c1.8,0,3.5,0.7,4.7,2
		c1.2,1.2,2,2.9,2,4.7v4.5H43.4z"/>
	<path style="fill:#74C6A2;stroke:#979797;stroke-width:0.75;stroke-linejoin:round;stroke-miterlimit:10;" d="M54.6,55.3
		c0,1.9-1.2,3.6-2.8,4.3v3.6c0,1-0.8,1.8-1.8,1.8s-1.8-0.8-1.8-1.8v-3.6c-1.7-0.7-2.8-2.3-2.8-4.3c0-2.5,2.1-4.6,4.6-4.6
		C52.5,50.7,54.6,52.7,54.6,55.3z"/>
</g>
</svg>
