<?xml version="1.0" encoding="utf-8"?>
<!-- Generator: Adobe Illustrator 22.0.1, SVG Export Plug-In . SVG Version: 6.00 build 0)  -->
<svg version="1.1" id="Layer_1" xmlns="http://www.w3.org/2000/svg" xmlns:xlink="http://www.w3.org/1999/xlink" x="0px" y="0px"
	 viewBox="0 0 100 100" style="enable-background:new 0 0 100 100;" xml:space="preserve">
<g>
	<circle style="fill:none;stroke:#BDCCD4;stroke-miterlimit:10;" cx="50" cy="50" r="49.2"/>
	<circle style="fill:#BDCCD4;" cx="50" cy="50" r="45.3"/>
	<g>
		<path style="fill:#2AAAE2;" d="M49.5,34.5c-15.3,0-27.6-3.5-27.6-7.8v46.5c0,4.3,12.4,7.8,27.6,7.8s27.6-3.5,27.6-7.8V26.7
			C77.1,31,64.8,34.5,49.5,34.5z"/>
		<path style="fill:#989898;" d="M49.5,63.6c-15.3,0-27.6-3.5-27.6-7.8v1.9c0,4.3,12.4,7.8,27.6,7.8s27.6-3.5,27.6-7.8v-1.9
			C77.1,60.1,64.8,63.6,49.5,63.6z"/>
		<path style="fill:#989898;" d="M49.5,50c-15.3,0-27.6-3.5-27.6-7.8v1.9c0,4.3,12.4,7.8,27.6,7.8s27.6-3.5,27.6-7.8v-1.9
			C77.1,46.5,64.8,50,49.5,50z"/>
		<ellipse style="fill:#989898;" cx="49.5" cy="26.7" rx="27.6" ry="7.8"/>
		<g>
			<circle style="fill:#E6E7E7;" cx="45.4" cy="41.9" r="1.5"/>
			<circle style="fill:#E6E7E7;" cx="49.5" cy="41.9" r="1.5"/>
			<circle style="fill:#E6E7E7;" cx="53.6" cy="41.9" r="1.5"/>
		</g>
		<g>
			<circle style="fill:#E6E7E7;" cx="45.4" cy="56.3" r="1.5"/>
			<circle style="fill:#E6E7E7;" cx="49.5" cy="56.3" r="1.5"/>
			<circle style="fill:#E6E7E7;" cx="53.6" cy="56.3" r="1.5"/>
		</g>
		<g>
			<circle style="fill:#E6E7E7;" cx="45.4" cy="71.9" r="1.5"/>
			<circle style="fill:#E6E7E7;" cx="49.5" cy="71.9" r="1.5"/>
			<circle style="fill:#E6E7E7;" cx="53.6" cy="71.9" r="1.5"/>
		</g>
		<g>
			<circle style="fill:#D0D2D3;stroke:#989898;stroke-width:0.5;stroke-miterlimit:10;" cx="71.9" cy="55.9" r="15.1"/>
			<g>
				<line style="fill:none;stroke:#28A8E0;stroke-width:0.5;stroke-miterlimit:10;" x1="63.3" y1="49.4" x2="80.6" y2="49.4"/>
				<path style="fill:none;stroke:#28A8E0;stroke-width:0.5;stroke-miterlimit:10;" d="M78.8,49.4l-1.9,14.9c0,0.3-0.4,0.6-0.7,0.6
					h-8.6c-0.3,0-0.7-0.3-0.7-0.6l-1.9-14.9"/>
				<line style="fill:none;stroke:#28A8E0;stroke-width:0.5;stroke-miterlimit:10;" x1="69.1" y1="61.4" x2="68.4" y2="53.3"/>
				<line style="fill:none;stroke:#28A8E0;stroke-width:0.5;stroke-miterlimit:10;" x1="75.7" y1="53.3" x2="75.1" y2="61.4"/>
				<line style="fill:none;stroke:#28A8E0;stroke-width:0.5;stroke-miterlimit:10;" x1="72.1" y1="61.4" x2="72.1" y2="53.3"/>
				<polyline style="fill:none;stroke:#28A8E0;stroke-width:0.5;stroke-linejoin:round;stroke-miterlimit:10;" points="68.8,49.4 
					69.4,47.1 74.5,47.1 75.1,49.4 				"/>
			</g>
		</g>
	</g>
</g>
</svg>
