<?xml version="1.0" encoding="utf-8"?>
<!-- Generator: Adobe Illustrator 22.0.1, SVG Export Plug-In . SVG Version: 6.00 build 0)  -->
<svg version="1.1" id="Layer_1" xmlns="http://www.w3.org/2000/svg" xmlns:xlink="http://www.w3.org/1999/xlink" x="0px" y="0px"
	 viewBox="0 0 100 100" style="enable-background:new 0 0 100 100;" xml:space="preserve">
<g>
	<circle style="opacity:0.6;fill:none;stroke:#24B574;stroke-miterlimit:10;" cx="50" cy="50" r="49.2"/>
	<circle style="opacity:0.6;fill:#24B574;" cx="50" cy="50" r="45.3"/>
	<g>
		<g>
			
				<line style="fill:none;stroke:#979797;stroke-width:7;stroke-linejoin:round;stroke-miterlimit:10;" x1="30" y1="50" x2="30" y2="50"/>
			<g id="XMLID_3_">
				<g>
					<polygon style="fill:#FFFFFF;" points="74.1,27.9 74.1,81.7 25.5,81.7 25.5,27.1 25.5,18.3 64.5,18.3 64.5,27.9 74,27.9 					
						"/>
					<polygon style="fill:#BBCBD3;" points="74.1,27.7 74.1,27.9 74,27.9 64.5,27.9 64.5,18.3 					"/>
				</g>
				<g>
					<polygon style="fill:none;stroke:#979797;stroke-miterlimit:10;" points="64.5,18.3 25.5,18.3 25.5,27.1 25.5,81.7 74.1,81.7 
						74.1,27.9 74.1,27.7 					"/>
					<polyline style="fill:none;stroke:#979797;stroke-miterlimit:10;" points="74,27.9 64.5,27.9 64.5,18.3 					"/>
				</g>
			</g>
			<rect x="33.4" y="33.3" style="fill:#BBCBD3;" width="33.3" height="2.6"/>
			<rect x="33.4" y="39.1" style="fill:#BBCBD3;" width="33.3" height="2.6"/>
			<rect x="33.4" y="50" style="fill:#BBCBD3;" width="32.9" height="2.6"/>
			<rect x="33.4" y="55.8" style="fill:#BBCBD3;" width="32.9" height="2.6"/>
			<rect x="33.4" y="61.5" style="fill:#BBCBD3;" width="19.1" height="2.6"/>
			<rect x="33.4" y="44.5" style="fill:#BBCBD3;" width="33.3" height="2.6"/>
		</g>
		<g>
			<g>
				<path style="fill:#989898;stroke:#FFFFFF;stroke-width:0.5;stroke-miterlimit:10;" d="M89.9,39.4c-4.2,4.2-23.6,24.2-24.7,25.3
					c0,0-0.1,0.1-0.1,0.1L58.2,67c-0.2,0.1-0.4-0.1-0.4-0.3l1.8-7l0.1-0.1c0,0,24.1-23.8,25.3-25.1C86.1,33.5,91,38.4,89.9,39.4z"/>
				<line style="fill:#989898;stroke:#FFFFFF;stroke-width:0.5;stroke-miterlimit:10;" x1="82.3" y1="37.2" x2="87.2" y2="42.1"/>
			</g>
			<line style="fill:none;stroke:#FFFFFF;stroke-width:0.5;stroke-miterlimit:10;" x1="59.7" y1="59.6" x2="65.1" y2="64.9"/>
		</g>
	</g>
</g>
</svg>
