<?xml version="1.0" encoding="utf-8"?>
<!-- Generator: Adobe Illustrator 22.0.1, SVG Export Plug-In . SVG Version: 6.00 build 0)  -->
<svg version="1.1" id="Layer_1" xmlns="http://www.w3.org/2000/svg" xmlns:xlink="http://www.w3.org/1999/xlink" x="0px" y="0px"
	 viewBox="0 0 100 100" style="enable-background:new 0 0 100 100;" xml:space="preserve">
<g>
	<circle style="fill:none;stroke:#B1CFDF;stroke-miterlimit:10;" cx="50" cy="50" r="49.2"/>
	<circle style="fill:#B1CFDF;" cx="50" cy="50" r="45.3"/>
	<path style="fill:#FFFFFF;stroke:#989898;stroke-miterlimit:10;" d="M68.9,47.3c0-2,0.5-4.7-1.5-8c-1-1.7-10.7-3-10.7-3l-5.5,5.7
		l-5.5-5.7c0,0-9.7,1.3-10.7,3c-2,3.3-1.5,5.9-1.5,8H68.9z"/>
	<g>
		<g id="XMLID_5_">
			<g>
				<path style="fill:#FFFFFF;" d="M56.3,18.7c0-1-1.3-11.2-14-5.7l-0.1-0.1c1.7-2.2,19.7-9.4,17.3,9l0.2-0.7
					c0.1,0.4,4.1-2.8,0.1,4.6c-0.6,1.1-2.1,0.1-2.1,0.1s-1.3,8.8-7.3,8.5c-6.1,0.3-7.3-8.5-7.3-8.5s-1.4,1.1-2.1-0.1
					c-4-7.4,0-4.2,0.1-4.6l0.4-0.6c5.6-5.7,15.8-1.3,17.6-0.5L56.3,18.7z"/>
				<path style="fill:#FFFFFF;" d="M59.1,20.1c-1.8-0.8-12-5.3-17.6,0.5c0,0-6.6-4.3,0.3-7.4c0.2-0.1,0.4-0.2,0.5-0.2
					c12.7-5.5,13.9,4.7,14,5.7L59.1,20.1z"/>
			</g>
			<g>
				<path style="fill:none;stroke:#989898;stroke-linecap:round;stroke-linejoin:round;stroke-miterlimit:10;" d="M59.4,20.2
					C59.4,20.2,59.3,20.2,59.4,20.2l-0.2-0.1c0,0,0,0,0,0l-2.8-1.4c0-1-1.3-11.2-14-5.7c-0.2,0.1-0.4,0.1-0.5,0.2
					c-6.9,3.1-0.3,7.4-0.3,7.4"/>
				<path style="fill:none;stroke:#989898;stroke-linecap:round;stroke-linejoin:round;stroke-miterlimit:10;" d="M42.2,12.8
					c1.7-2.2,19.7-9.4,17.3,9l0.2-0.7c0.1,0.4,4.1-2.8,0.1,4.6c-0.6,1.1-2.1,0.1-2.1,0.1s-1.3,8.8-7.3,8.5c-6.1,0.3-7.3-8.5-7.3-8.5
					s-1.4,1.1-2.1-0.1c-4-7.4,0-4.2,0.1-4.6l0.4-0.6c5.6-5.7,15.8-1.3,17.6-0.5"/>
			</g>
		</g>
	</g>
	<circle style="fill:#818181;" cx="47.3" cy="24.3" r="1"/>
	<circle style="fill:#818181;" cx="54.2" cy="24.1" r="1"/>
	<path style="fill:none;stroke:#818181;stroke-width:0.5;stroke-linecap:round;stroke-miterlimit:10;" d="M48.3,29
		c2.9,2,5.1,0,5.1,0"/>
	<line style="fill:none;stroke:#989898;stroke-miterlimit:10;" x1="13.6" y1="70" x2="87.9" y2="70"/>
	<path style="fill:#E6E6E5;stroke:#989898;stroke-miterlimit:10;" d="M28,69.3V47.1c0-0.2,0.2-0.4,0.5-0.4h44.7
		c0.3,0,0.5,0.2,0.5,0.4v22.2"/>
	<circle style="fill:#818181;" cx="50.8" cy="58" r="2.1"/>
</g>
</svg>
