<?xml version="1.0" encoding="utf-8"?>
<!-- Generator: Adobe Illustrator 22.0.1, SVG Export Plug-In . SVG Version: 6.00 build 0)  -->
<svg version="1.1" id="Layer_1" xmlns="http://www.w3.org/2000/svg" xmlns:xlink="http://www.w3.org/1999/xlink" x="0px" y="0px"
	 viewBox="0 0 100 100" style="enable-background:new 0 0 100 100;" xml:space="preserve">
<g>
	<path style="opacity:0.76;fill:none;stroke:#00A99D;stroke-miterlimit:10;" d="M50,99.2C22.9,99.2,0.8,77.1,0.8,50
		C0.8,22.9,22.9,0.8,50,0.8S99.2,22.9,99.2,50C99.2,77.1,77.1,99.2,50,99.2z"/>
	<circle style="opacity:0.76;fill:#00A99D;" cx="50" cy="50" r="45.3"/>
	<g>
		<path style="fill:#FFFFFF;stroke:#989898;stroke-width:0.75;stroke-miterlimit:10;" d="M58.7,53.8c-0.1,0-0.2,0-0.3,0
			c-1.5-0.1-2.8-0.8-3.8-1.9l-0.9-1l3-2.5l0.9,1c0.3,0.3,0.6,0.5,1.1,0.5c0.4,0,0.8-0.1,1.1-0.4l12-11.1c0.7-0.6,0.8-1.8,0.2-2.5
			l-6.1-7.3C65.4,28.2,65,28,64.6,28c-0.4,0-0.8,0.1-1.1,0.4l-12,11.1c-0.7,0.6-0.8,1.8-0.2,2.5l0.4,0.5l-3,2.5l-0.4-0.5
			c-1.9-2.3-1.7-5.9,0.5-7.9l12-11.1c1.1-1,2.5-1.5,4-1.4c1.5,0.1,2.8,0.8,3.8,1.9l6.1,7.3c1.9,2.3,1.7,5.9-0.5,7.9l-12,11.1
			C61.3,53.3,60,53.8,58.7,53.8z"/>
		<path style="fill:#FFFFFF;stroke:#989898;stroke-width:0.75;stroke-miterlimit:10;" d="M35.5,75.9c-0.1,0-0.2,0-0.3,0
			c-1.5-0.1-2.8-0.8-3.8-1.9l-6.1-7.3c-1.9-2.3-1.7-5.9,0.5-7.9l12-11.1c1.1-1,2.5-1.5,4-1.4c1.5,0.1,2.8,0.8,3.8,1.9l0.2,0.2
			l-3,2.5l-0.2-0.2c-0.3-0.3-0.6-0.5-1.1-0.5c-0.4,0-0.8,0.1-1.1,0.4l-12,11.1c-0.7,0.6-0.8,1.8-0.2,2.5l6.1,7.3
			c0.3,0.3,0.6,0.5,1.1,0.5c0.4,0,0.8-0.1,1.1-0.4l12-11.1c0.7-0.6,0.8-1.8,0.2-2.5l-1.1-1.3l3-2.5l1.1,1.3c1.9,2.3,1.7,5.9-0.5,7.9
			l-12,11.1C38.1,75.4,36.8,75.9,35.5,75.9z"/>
		<path style="fill:#FFFFFF;stroke:#989898;stroke-width:0.75;stroke-miterlimit:10;" d="M40,60.7c-0.5,0-1-0.2-1.4-0.6
			c-0.7-0.8-0.7-2,0.1-2.8l19.2-18c0.8-0.7,2-0.7,2.8,0.1c0.7,0.8,0.7,2-0.1,2.8l-19.2,18C40.9,60.5,40.5,60.7,40,60.7z"/>
	</g>
</g>
</svg>
