<?xml version="1.0" encoding="utf-8"?>
<!-- Generator: Adobe Illustrator 22.0.1, SVG Export Plug-In . SVG Version: 6.00 build 0)  -->
<svg version="1.1" id="Layer_1" xmlns="http://www.w3.org/2000/svg" xmlns:xlink="http://www.w3.org/1999/xlink" x="0px" y="0px"
	 viewBox="0 0 100 100" style="enable-background:new 0 0 100 100;" xml:space="preserve">
<style type="text/css">
	.st0{fill:none;stroke:#909090;stroke-width:2;stroke-linecap:round;stroke-linejoin:round;stroke-miterlimit:10;}
</style>
<g>
	<line class="st0" x1="37.2" y1="72.5" x2="33.4" y2="85.2"/>
	<line class="st0" x1="62.4" y1="72.4" x2="66.4" y2="85.4"/>
	<g>
		<path class="st0" d="M62.4,38c0,0.4,0,0.8-0.1,1.2c0,0.1,0,0.3-0.1,0.4c-0.8,5.6-5.3,10.1-10.9,10.7c-0.4,0-0.9,0.1-1.3,0.1
			c-1,0-1.9-0.1-2.8-0.3c-4.5-1.1-8.1-4.6-9.2-9.3c0-0.1,0-0.2-0.1-0.3c-0.2-0.8-0.3-1.7-0.3-2.5c0-6.6,5.1-12,11.5-12.4
			c0.3,0,0.6,0,0.9,0c1,0,2,0.1,2.9,0.3C58.3,27.2,62.4,32.2,62.4,38z"/>
		<path class="st0" d="M20.2,84.7c0.7-2,1.5-4.1,2.2-6.2c0.2-0.6,0.4-1.2,0.6-1.8c0.5-1.5,1-2.9,1.5-4.4c0.4-1.2,0.8-2.5,1.3-3.8
			c0.8-2.5,1.7-5.1,3-7.3c1.4-2.4,3.3-4.5,6.2-5.7c1.4-0.6,2.9-0.9,4.4-0.9l7.5-0.1h4.5l8.8-0.1c4,0,7.9,1.8,10.2,5.1
			c0.3,0.5,0.6,0.9,0.8,1.4c0.7,1.4,1.1,3,1.6,4.5c0.4,1,0.7,2.1,1.1,3.1c0.1,0.3,0.2,0.5,0.3,0.8c0.9,2.4,1.7,4.9,2.6,7.3
			c0.2,0.5,0.3,1,0.5,1.5c0.4,1.2,0.8,2.4,1.3,3.6c0.3,1,0.7,2,1,2.9"/>
		<path class="st0" d="M23.2,26.2c-2.1,4.1-3.3,8.7-3.3,13.7c0,5.3,1.4,10.3,3.8,14.6"/>
		<path class="st0" d="M76.6,25.8c2.2,4.2,3.5,9,3.5,14c0,5.1-1.3,10-3.5,14.2"/>
		<path class="st0" d="M82.1,20.5c3.4,5.7,5.4,12.3,5.4,19.4c0,7.2-2,14-5.6,19.7"/>
		<path class="st0" d="M17.8,20.7c-3.3,5.6-5.2,12.1-5.2,19.1c0,7.3,2.1,14.1,5.7,19.9"/>
		<path class="st0" d="M12.2,65.5c-5-7.3-7.9-16.2-7.9-25.7c0-9.3,2.8-17.9,7.5-25.1"/>
	</g>
	<path class="st0" d="M88.1,14.6c4.8,7.2,7.6,15.9,7.6,25.2c0,9.5-2.9,18.4-7.9,25.7"/>
</g>
</svg>
