<?xml version="1.0" encoding="utf-8"?>
<!-- Generator: Adobe Illustrator 22.0.1, SVG Export Plug-In . SVG Version: 6.00 build 0)  -->
<svg version="1.1" id="Layer_1" xmlns="http://www.w3.org/2000/svg" xmlns:xlink="http://www.w3.org/1999/xlink" x="0px" y="0px"
	 viewBox="0 0 100 100" style="enable-background:new 0 0 100 100;" xml:space="preserve">
<style type="text/css">
	.st0{fill:none;stroke:#909090;stroke-width:2;stroke-linecap:round;stroke-linejoin:round;stroke-miterlimit:10;}
</style>
<g>
	<path class="st0" d="M76.7,95.2H23.3c-6.6,0-12-5.4-12-12V16.8c0-6.6,5.4-12,12-12h53.3c6.6,0,12,5.4,12,12v66.4
		C88.7,89.8,83.3,95.2,76.7,95.2z"/>
	<g>
		<rect x="22.4" y="18.3" class="st0" width="15.4" height="15.4"/>
		<rect x="22.4" y="42.3" class="st0" width="15.4" height="15.4"/>
		<rect x="22.4" y="66.3" class="st0" width="15.4" height="15.4"/>
		<line class="st0" x1="45.9" y1="26" x2="77.6" y2="26"/>
		<line class="st0" x1="45.9" y1="50" x2="77.6" y2="50"/>
		<line class="st0" x1="45.9" y1="74" x2="77.6" y2="74"/>
		<line class="st0" x1="25.6" y1="74" x2="30.1" y2="78.5"/>
		<line class="st0" x1="30.1" y1="78.5" x2="42.8" y2="66.3"/>
	</g>
</g>
</svg>
