<?xml version="1.0" encoding="utf-8"?>
<!-- Generator: Adobe Illustrator 22.0.1, SVG Export Plug-In . SVG Version: 6.00 build 0)  -->
<svg version="1.1" id="Layer_1" xmlns="http://www.w3.org/2000/svg" xmlns:xlink="http://www.w3.org/1999/xlink" x="0px" y="0px"
	 viewBox="0 0 100 100" style="enable-background:new 0 0 100 100;" xml:space="preserve">
<style type="text/css">
	.st0{fill:#C7C7C7;}
	.st1{fill:#FFFFFF;}
	.st2{fill:none;stroke:#929292;stroke-linecap:round;stroke-linejoin:round;stroke-miterlimit:10;}
	.st3{fill:none;stroke:#FFFFFF;stroke-width:0.75;stroke-linecap:round;stroke-linejoin:round;stroke-miterlimit:10;}
	.st4{fill:#E82B2F;}
	.st5{fill:#E9CD16;}
	.st6{fill:#3BAE4A;}
	.st7{opacity:0.35;fill:#DCDCDC;}
	.st8{fill:#C7C7C7;stroke:#929292;stroke-linecap:round;stroke-linejoin:round;stroke-miterlimit:10;}
	.st9{fill:none;stroke:#909090;stroke-width:2;stroke-linecap:round;stroke-linejoin:round;stroke-miterlimit:10;}
	.st10{fill:#F0F0F0;stroke:#929292;stroke-linecap:round;stroke-linejoin:round;stroke-miterlimit:10;}
	.st11{fill:none;stroke:#909090;stroke-linecap:round;stroke-linejoin:round;stroke-miterlimit:10;}
	.st12{fill:none;stroke:#497DBB;stroke-width:0.75;stroke-linecap:round;stroke-linejoin:round;stroke-miterlimit:10;}
</style>
<g>
	<g id="XMLID_4_">
		<g>
			<path class="st0" d="M96.7,11.7v11.9H3.5H3.3V11.7c0-0.8,0.7-1.5,1.5-1.5h90.3C96,10.2,96.7,10.9,96.7,11.7z"/>
			<path class="st1" d="M96.7,23.6v64.7c0,0.8-0.7,1.5-1.5,1.5H4.9c-0.8,0-1.5-0.7-1.5-1.5V23.6h0.2H96.7z"/>
		</g>
		<g>
			<path class="st2" d="M96.7,23.6v64.7c0,0.8-0.7,1.5-1.5,1.5H4.9c-0.8,0-1.5-0.7-1.5-1.5V23.6V11.7c0-0.8,0.7-1.5,1.5-1.5h90.3
				c0.8,0,1.5,0.7,1.5,1.5V23.6z"/>
			<polyline class="st2" points="3.5,23.6 96.7,23.6 96.7,23.6 			"/>
		</g>
	</g>
	<path class="st3" d="M85.1,18.6H43.9c-0.9,0-1.6-0.7-1.6-1.6c0-0.9,0.7-1.6,1.6-1.6h41.2c0.9,0,1.6,0.7,1.6,1.6
		C86.7,17.9,86,18.6,85.1,18.6z"/>
	<ellipse class="st4" cx="12.4" cy="17.1" rx="1.8" ry="1.8"/>
	<ellipse class="st5" cx="19.5" cy="17.1" rx="1.8" ry="1.8"/>
	<ellipse class="st6" cx="25.9" cy="17.1" rx="1.8" ry="1.8"/>
	<g>
		<polygon class="st1" points="27.4,46.8 27.4,46.8 27.4,46.8 		"/>
	</g>
	<g>
		<polygon class="st1" points="27.4,46.8 27.4,46.8 27.4,46.8 		"/>
	</g>
	<g>
		<polygon class="st1" points="27.4,46.8 27.4,46.8 27.4,46.8 		"/>
	</g>
	<rect x="38" y="82.7" class="st7" width="24.1" height="2.3"/>
	<path class="st8" d="M66.8,46c-1.8-3.4-4.6-6.3-8.1-8c-2.6-1.4-5.6-2.1-8.7-2.1s-6.1,0.8-8.7,2.1c-3.4,1.8-6.3,4.6-8.1,8
		c-1.4,2.6-2.1,5.6-2.1,8.7c0,3.2,0.8,6.1,2.1,8.7c1.8,3.4,4.6,6.3,8.1,8c2.6,1.4,5.6,2.1,8.7,2.1s6.1-0.8,8.7-2.1
		c3.4-1.8,6.3-4.6,8.1-8c1.4-2.6,2.1-5.6,2.1-8.7C68.9,51.6,68.1,48.6,66.8,46z"/>
	<path class="st10" d="M61.5,48.8c-1.2-2.3-3.2-4.3-5.5-5.5c-1.8-0.9-3.8-1.5-6-1.5s-4.2,0.5-6,1.5c-2.3,1.2-4.3,3.1-5.5,5.5
		c-0.9,1.8-1.5,3.8-1.5,6s0.5,4.2,1.5,6c1.2,2.3,3.2,4.3,5.5,5.5c1.8,0.9,3.8,1.5,6,1.5s4.2-0.5,6-1.5c2.3-1.2,4.3-3.1,5.5-5.5
		c0.9-1.8,1.5-3.8,1.5-6S62.4,50.6,61.5,48.8z"/>
	<polyline class="st11" points="58.7,54.8 63.8,54.8 68.9,54.8 74.4,54.8 	"/>
	<polyline class="st11" points="25.6,54.8 31.1,54.8 36.2,54.8 41.3,54.8 	"/>
	<polyline class="st11" points="50,63.5 50,68.6 50,73.7 50,79.1 	"/>
	<polyline class="st11" points="50,46 50,41 50,35.9 50,30.3 	"/>
	<g>
		<g>
			<circle class="st12" cx="50.1" cy="53.3" r="1.3"/>
			<path class="st12" d="M47.2,57.6c0-1.6,1.3-2.9,2.9-2.9c1.6,0,2.9,1.3,2.9,2.9"/>
		</g>
		<circle class="st12" cx="50.1" cy="54.8" r="5"/>
	</g>
</g>
</svg>
