<?xml version="1.0" encoding="utf-8"?>
<!-- Generator: Adobe Illustrator 22.0.1, SVG Export Plug-In . SVG Version: 6.00 build 0)  -->
<svg version="1.1" id="Layer_1" xmlns="http://www.w3.org/2000/svg" xmlns:xlink="http://www.w3.org/1999/xlink" x="0px" y="0px"
	 viewBox="0 0 100 100" style="enable-background:new 0 0 100 100;" xml:space="preserve">
<style type="text/css">
	.st0{fill:#B38D51;}
	.st1{fill:none;stroke:#4D4D4D;stroke-width:0.5;stroke-miterlimit:10;}
	.st2{fill:none;stroke:#717171;stroke-width:0.5;stroke-miterlimit:10;}
	.st3{fill:none;stroke:#717171;stroke-width:0.5;stroke-miterlimit:10;stroke-dasharray:2.7852,2.7852,2.7852,2.7852;}
	
		.st4{fill:none;stroke:#717171;stroke-width:0.5;stroke-miterlimit:10;stroke-dasharray:2.7852,2.7852,2.7852,2.7852,2.7852,2.7852;}
	.st5{fill:#717171;}
	.st6{fill:none;stroke:#717171;stroke-width:0.5;stroke-miterlimit:10;stroke-dasharray:2.8015,2.8015,2.8015,2.8015;}
	
		.st7{fill:none;stroke:#717171;stroke-width:0.5;stroke-miterlimit:10;stroke-dasharray:2.8015,2.8015,2.8015,2.8015,2.8015,2.8015;}
	.st8{fill:none;stroke:#717171;stroke-width:0.5;stroke-miterlimit:10;stroke-dasharray:2.866,2.866,2.866,2.866;}
	.st9{fill:none;stroke:#717171;stroke-width:0.5;stroke-miterlimit:10;stroke-dasharray:2.866,2.866,2.866,2.866,2.866,2.866;}
	.st10{fill:none;stroke:#717171;stroke-width:0.5;stroke-miterlimit:10;stroke-dasharray:2.8823,2.8823,2.8823,2.8823;}
	
		.st11{fill:none;stroke:#717171;stroke-width:0.5;stroke-miterlimit:10;stroke-dasharray:2.8823,2.8823,2.8823,2.8823,2.8823,2.8823;}
	.st12{fill:none;stroke:#717171;stroke-width:0.5;stroke-miterlimit:10;stroke-dasharray:0.3343,0.3343,0.3343,0.3343;}
	.st13{fill:none;stroke:#717171;stroke-width:0.5;stroke-miterlimit:10;stroke-dasharray:0.3702,0.3702,0.3702,0.3702;}
	.st14{fill:#4D7FB8;}
	.st15{font-family:'MyriadPro-Regular';}
	.st16{font-size:8px;}
	.st17{fill:none;stroke:#4D4D4D;stroke-linecap:round;stroke-miterlimit:10;}
</style>
<line class="st1" x1="3.2" y1="10.3" x2="84.1" y2="10.3"/>
<line class="st1" x1="84.1" y1="10.3" x2="84.1" y2="93.2"/>
<line class="st1" x1="83.8" y1="10.3" x2="96.7" y2="6.9"/>
<g>
	<g>
		<line class="st2" x1="3.2" y1="16.5" x2="4.7" y2="16.5"/>
		<line class="st3" x1="7.5" y1="16.5" x2="17.3" y2="16.5"/>
		<line class="st4" x1="18.7" y1="16.5" x2="34" y2="16.5"/>
		<line class="st2" x1="35.4" y1="16.5" x2="36.9" y2="16.5"/>
		<g>
			<polygon class="st5" points="36.4,18.2 39.3,16.5 36.4,14.8 			"/>
		</g>
	</g>
</g>
<g>
	<g>
		<line class="st2" x1="50.3" y1="16.5" x2="51.8" y2="16.5"/>
		<line class="st6" x1="54.6" y1="16.5" x2="64.4" y2="16.5"/>
		<line class="st7" x1="65.8" y1="16.5" x2="81.2" y2="16.5"/>
		<line class="st2" x1="82.6" y1="16.5" x2="84.1" y2="16.5"/>
		<g>
			<polygon class="st5" points="50.7,18.1 48,16.5 50.7,14.9 			"/>
		</g>
	</g>
</g>
<g>
	<g>
		<line class="st2" x1="78.9" y1="93.2" x2="78.9" y2="91.7"/>
		<line class="st8" x1="78.9" y1="88.8" x2="78.9" y2="78.8"/>
		<line class="st9" x1="78.9" y1="77.3" x2="78.9" y2="61.6"/>
		<line class="st2" x1="78.9" y1="60.1" x2="78.9" y2="58.6"/>
		<g>
			<polygon class="st5" points="80.6,59.1 78.9,56.2 77.2,59.1 			"/>
		</g>
	</g>
</g>
<g>
	<g>
		<line class="st2" x1="78.9" y1="45" x2="78.9" y2="43.5"/>
		<line class="st10" x1="78.9" y1="40.6" x2="78.9" y2="30.6"/>
		<line class="st11" x1="78.9" y1="29.1" x2="78.9" y2="13.3"/>
		<line class="st2" x1="78.9" y1="11.8" x2="78.9" y2="10.3"/>
		<g>
			<polygon class="st5" points="80.5,44.6 78.9,47.3 77.3,44.6 			"/>
		</g>
	</g>
</g>
<g>
	<g>
		<line class="st2" x1="84.3" y1="88.8" x2="85.5" y2="87.8"/>
		<line class="st12" x1="85.7" y1="87.6" x2="86.6" y2="86.9"/>
		<line class="st2" x1="86.8" y1="86.7" x2="87.9" y2="85.8"/>
		<g>
			<polygon class="st5" points="88.6,87.4 89.8,84.2 86.4,84.8 			"/>
		</g>
	</g>
</g>
<g>
	<g>
		<line class="st2" x1="92.8" y1="81.6" x2="93.9" y2="80.7"/>
		<line class="st13" x1="94.2" y1="80.4" x2="95.2" y2="79.6"/>
		<line class="st2" x1="95.4" y1="79.5" x2="96.5" y2="78.5"/>
		<g>
			<polygon class="st5" points="94.2,82.5 91.1,83.1 92.1,80.1 			"/>
		</g>
	</g>
</g>
<text transform="matrix(1 0 0 1 40.7373 17.6599)" class="st14 st15 st16">W</text>
<text transform="matrix(1 0 0 1 72.2136 54.2475)" class="st14 st15 st16">H</text>
<text transform="matrix(1 0 0 1 87.4522 78.5281)" class="st14 st15 st16">L</text>
<polyline class="st17" points="96.8,6.8 26.2,6.8 26.2,6.8 26.2,6.8 3.2,10.3 3.2,93.2 84.1,93.2 96.8,82 96.8,6.8 "/>
</svg>
