<?xml version="1.0" encoding="utf-8"?>
<!-- Generator: Adobe Illustrator 22.0.1, SVG Export Plug-In . SVG Version: 6.00 build 0)  -->
<svg version="1.1" id="Layer_1" xmlns="http://www.w3.org/2000/svg" xmlns:xlink="http://www.w3.org/1999/xlink" x="0px" y="0px"
	 viewBox="0 0 100 100" style="enable-background:new 0 0 100 100;" xml:space="preserve">
<style type="text/css">
	.st0{fill:#FFFFFF;stroke:#959595;stroke-width:2;stroke-linecap:round;stroke-linejoin:round;stroke-miterlimit:10;}
	.st1{fill:#FFFFFF;stroke:#959595;stroke-width:2;stroke-miterlimit:10;}
</style>
<path class="st0" d="M95,54.3v-8.5l-11.8-2.7c-0.9-4.2-2.5-8.2-4.8-11.6l6.4-10.2l-6-6l-10.2,6.4c-3.5-2.3-7.4-3.9-11.6-4.8L54.3,5
	h-8.5l-2.7,12c-4.2,0.9-8.1,2.5-11.6,4.8l-10.2-6.4l-6,6l6.4,10.2c-2.3,3.5-3.9,7.4-4.8,11.6L5,45.9v8.5L17,57
	c0.9,4.2,2.5,8.1,4.8,11.6L15.2,79l6,6l10.4-6.5c3.5,2.3,7.4,3.9,11.6,4.8L45.9,95h8.5L57,83.2c4.2-0.9,8.1-2.5,11.6-4.8L79,85l6-6
	l-6.5-10.4c2.3-3.5,3.9-7.4,4.8-11.6L95,54.3z"/>
<circle class="st1" cx="50.1" cy="50.1" r="21.4"/>
<polygon class="st0" points="50,35.3 53.8,46.3 65.4,46.5 56.2,53.6 59.5,64.7 50,58 40.5,64.7 43.8,53.6 34.6,46.5 46.2,46.3 "/>
</svg>
