<?xml version="1.0" encoding="utf-8"?>
<!-- Generator: Adobe Illustrator 22.0.1, SVG Export Plug-In . SVG Version: 6.00 build 0)  -->
<svg version="1.1" id="Layer_1" xmlns="http://www.w3.org/2000/svg" xmlns:xlink="http://www.w3.org/1999/xlink" x="0px" y="0px"
	 viewBox="0 0 100 100" style="enable-background:new 0 0 100 100;" xml:space="preserve">
<style type="text/css">
	.st0{fill:#CACACA;stroke:#959595;stroke-miterlimit:10;}
	.st1{fill:#EBEBEB;stroke:#969696;stroke-linejoin:round;stroke-miterlimit:10;}
	.st2{fill:#FFFFFF;stroke:#959595;stroke-miterlimit:10;}
</style>
<g>
	<path class="st0" d="M33,64.3c-4.7,0-8.5,3.8-8.5,8.5c0,4.7,3.8,8.5,8.5,8.5c4.7,0,8.5-3.8,8.5-8.5C41.5,68.1,37.7,64.3,33,64.3z
		 M33,77c-2.4,0-4.3-1.9-4.3-4.3c0-2.4,1.9-4.3,4.3-4.3c2.4,0,4.3,1.9,4.3,4.3C37.3,75.1,35.4,77,33,77z"/>
	<path class="st0" d="M77.7,64.3c-4.7,0-8.5,3.8-8.5,8.5c0,4.7,3.8,8.5,8.5,8.5c4.7,0,8.5-3.8,8.5-8.5
		C86.2,68.1,82.4,64.3,77.7,64.3z M77.7,77c-2.4,0-4.3-1.9-4.3-4.3c0-2.4,1.9-4.3,4.3-4.3c2.4,0,4.3,1.9,4.3,4.3
		C82,75.1,80.1,77,77.7,77z"/>
	<path class="st0" d="M81.6,22.6l-20.4-1l0.2,37.5H3.5v9.2v0.8v1.5H4h0.8h18.1c1-4.8,5.1-8.3,10.2-8.3c5,0,9.2,3.6,10.2,8.3h24.3
		c1-4.8,5.1-8.3,10.2-8.3c5,0,9.2,3.6,10.2,8.3h8.6V42.9L81.6,22.6z"/>
	<polygon class="st1" points="3.5,18.8 3.5,39 3.5,41.2 3.5,55.2 57.3,55.2 57.3,41.2 57.3,39 57.3,18.8 	"/>
	<polygon class="st2" points="67.8,29.5 79.5,29.5 88.1,40.8 67.9,40.8 	"/>
</g>
</svg>
