<?xml version="1.0" encoding="utf-8"?>
<!-- Generator: Adobe Illustrator 22.0.1, SVG Export Plug-In . SVG Version: 6.00 build 0)  -->
<svg version="1.1" id="Layer_1" xmlns="http://www.w3.org/2000/svg" xmlns:xlink="http://www.w3.org/1999/xlink" x="0px" y="0px"
	 viewBox="0 0 100 100" style="enable-background:new 0 0 100 100;" xml:space="preserve">
<style type="text/css">
	.st0{opacity:0.43;fill:#EAEAEA;}
	.st1{fill:#407FA1;}
	.st2{fill:#C0AA90;}
	.st3{fill:#FFFFFF;}
	.st4{fill:none;stroke:#407FA1;stroke-width:2;stroke-miterlimit:10;}
</style>
<g>
	<circle class="st0" cx="50" cy="50" r="49.5"/>
</g>
<g>
	<path class="st1" d="M48.4,59.5c-3.1,0-5.7,2.5-5.7,5.6c0,3.1,2.5,5.7,5.7,5.7c3.1,0,5.6-2.5,5.6-5.7C54,62.1,51.5,59.5,48.4,59.5z
		 M48.4,68.1c-1.6,0-2.9-1.3-2.9-2.9c0-1.6,1.3-2.9,2.9-2.9c1.6,0,2.9,1.3,2.9,2.9C51.2,66.8,50,68.1,48.4,68.1z"/>
	<path class="st1" d="M78.2,59.5c-3.1,0-5.6,2.5-5.6,5.6c0,3.1,2.5,5.7,5.6,5.7c3.1,0,5.6-2.5,5.6-5.7
		C83.8,62.1,81.3,59.5,78.2,59.5z M78.2,68.1c-1.6,0-2.9-1.3-2.9-2.9c0-1.6,1.3-2.9,2.9-2.9c1.6,0,2.9,1.3,2.9,2.9
		C81.1,66.8,79.8,68.1,78.2,68.1z"/>
	<path class="st1" d="M80.8,31.7H67.3l0,24.4H28.6v6.2v0.5v1H29h0.5h12.1c0.6-3.2,3.4-5.6,6.8-5.6c3.4,0,6.2,2.4,6.8,5.6h16.2
		c0.6-3.2,3.4-5.6,6.8-5.6s6.2,2.4,6.8,5.6h5.8V45.3L80.8,31.7z"/>
	<rect x="28.6" y="29.2" class="st2" width="35.9" height="12.4"/>
	<rect x="28.6" y="42.7" class="st2" width="35.9" height="10.8"/>
	<polygon class="st3" points="71.6,36.3 79.4,36.3 85.1,43.8 71.6,43.8 	"/>
	<line class="st4" x1="9.2" y1="62.8" x2="26.4" y2="62.8"/>
	<line class="st4" x1="13.8" y1="54.8" x2="26.4" y2="54.8"/>
	<line class="st4" x1="20.1" y1="47.1" x2="26.4" y2="47.1"/>
</g>
</svg>
