<?xml version="1.0" encoding="utf-8"?>
<!-- Generator: Adobe Illustrator 22.0.1, SVG Export Plug-In . SVG Version: 6.00 build 0)  -->
<svg version="1.1" id="Layer_1" xmlns="http://www.w3.org/2000/svg" xmlns:xlink="http://www.w3.org/1999/xlink" x="0px" y="0px"
	 viewBox="0 0 100 100" style="enable-background:new 0 0 100 100;" xml:space="preserve">
<style type="text/css">
	.st0{fill:none;stroke:#959595;stroke-width:2;stroke-linejoin:round;stroke-miterlimit:10;}
	.st1{fill:#FFFFFF;}
	.st2{fill:#B9C9D1;}
	.st3{fill:none;stroke:#959595;stroke-width:2;stroke-miterlimit:10;}
	.st4{fill:#DFDFDF;stroke:#FFFFFF;stroke-width:2;stroke-miterlimit:10;}
</style>
<g>
	<g>
		<g id="XMLID_3_">
			<g>
				<polygon class="st1" points="73.8,17.8 73.8,96.3 2.8,96.3 2.8,16.5 2.8,3.7 59.8,3.7 59.8,17.8 73.7,17.8 				"/>
				<polygon class="st2" points="73.8,17.4 73.8,17.8 73.7,17.8 59.8,17.8 59.8,3.7 				"/>
			</g>
			<g>
				<polygon class="st3" points="59.8,3.7 2.8,3.7 2.8,16.5 2.8,96.3 73.8,96.3 73.8,17.8 73.8,17.4 				"/>
				<polyline class="st3" points="73.7,17.8 59.8,17.8 59.8,3.7 				"/>
			</g>
		</g>
		<rect x="14.3" y="25.5" class="st2" width="48.7" height="3.9"/>
		<rect x="14.3" y="34" class="st2" width="48.7" height="3.9"/>
		<rect x="14.3" y="50" class="st2" width="48.1" height="3.9"/>
		<rect x="14.3" y="58.4" class="st2" width="48.1" height="3.9"/>
		<rect x="14.3" y="66.9" class="st2" width="28" height="3.9"/>
		<rect x="14.3" y="42" class="st2" width="48.7" height="3.9"/>
	</g>
	<g>
		<g>
			<path class="st4" d="M97,34.5c-6.2,6.2-34.6,35.4-36.2,37c0,0-0.1,0.1-0.2,0.1l-10.1,3.2c-0.3,0.1-0.6-0.2-0.5-0.5l2.6-10.2
				l0.1-0.1c0,0,35.2-34.8,37-36.6C91.4,25.8,98.6,33,97,34.5z"/>
			<line class="st4" x1="85.9" y1="31.3" x2="93" y2="38.4"/>
		</g>
		<line class="st4" x1="52.9" y1="64" x2="60.7" y2="71.8"/>
	</g>
</g>
</svg>
