<?xml version="1.0" encoding="utf-8"?>
<!-- Generator: Adobe Illustrator 22.0.1, SVG Export Plug-In . SVG Version: 6.00 build 0)  -->
<svg version="1.1" id="Layer_1" xmlns="http://www.w3.org/2000/svg" xmlns:xlink="http://www.w3.org/1999/xlink" x="0px" y="0px"
	 viewBox="0 0 100 100" style="enable-background:new 0 0 100 100;" xml:space="preserve">
<style type="text/css">
	.st0{fill:#CACACA;stroke:#959595;stroke-width:0.86;stroke-linecap:round;stroke-linejoin:round;stroke-miterlimit:10;}
	.st1{fill:#F3F3F3;stroke:#959595;stroke-width:0.86;stroke-linecap:round;stroke-linejoin:round;stroke-miterlimit:10;}
	.st2{fill:#FFFFFF;stroke:#959595;stroke-width:0.8574;stroke-linecap:round;stroke-linejoin:round;stroke-miterlimit:10;}
	.st3{fill:#EBEBEB;stroke:#959595;stroke-width:0.86;stroke-linecap:round;stroke-linejoin:round;stroke-miterlimit:10;}
	.st4{fill:#FFFFFF;stroke:#959595;stroke-width:0.86;stroke-linecap:round;stroke-linejoin:round;stroke-miterlimit:10;}
	.st5{fill:none;stroke:#959595;stroke-width:0.86;stroke-linecap:round;stroke-linejoin:round;stroke-miterlimit:10;}
	.st6{fill:#FFFFFF;stroke:#959595;stroke-width:0.645;stroke-linecap:round;stroke-linejoin:round;stroke-miterlimit:10;}
	.st7{fill:none;stroke:#959595;stroke-width:0.645;stroke-linecap:round;stroke-linejoin:round;stroke-miterlimit:10;}
	.st8{fill:#FF0000;}
	.st9{font-family:'HelveticaNeue';}
	.st10{font-size:2.5916px;}
</style>
<g>
	<rect x="17.5" y="4.4" class="st0" width="64.4" height="14.1"/>
	<path class="st1" d="M17.3,19.8l-12.5,24c-1.1,2.1,0.5,4.7,3,4.7h23.2c1.6,0,3-1.1,3.3-2.7l4.9-25.8l-4.4,23.5
		c-0.5,2.6,1.6,5,4.4,5h20.4c3.2,0,5.6-2.7,5-5.7l-4.3-22.9l4.5,23.7c0.5,2.9,3.2,5,6.2,5h21.2c2.5,0,4.1-2.5,2.9-4.6l-13.4-24"/>
	<polyline class="st2" points="89.5,48.7 89.5,95.6 10.5,95.6 10.5,48.7 	"/>
	<polyline class="st3" points="18.4,95.2 18.4,57.8 55.6,57.8 55.6,95.2 	"/>
	<polyline class="st3" points="64.3,79.9 64.3,57.7 82.2,57.7 82.2,79.9 	"/>
	<rect x="23.3" y="62.1" class="st4" width="27.3" height="11"/>
	<path class="st5" d="M82.5,83H64c-0.3,0-0.5-0.2-0.5-0.5v-2.2c0-0.3,0.2-0.5,0.5-0.5h18.5c0.3,0,0.5,0.2,0.5,0.5v2.2
		C83,82.7,82.7,83,82.5,83z"/>
	<line class="st5" x1="19.4" y1="78.1" x2="26.4" y2="78.1"/>
	<path class="st6" d="M77.8,70h-8.6c-0.4,0-0.7-0.3-0.7-0.7v-2.6c0-0.4,0.3-0.7,0.7-0.7h8.6c0.4,0,0.7,0.3,0.7,0.7v2.6
		C78.5,69.7,78.2,70,77.8,70z"/>
	<line class="st7" x1="73" y1="64.1" x2="70.8" y2="66"/>
	<line class="st7" x1="76.2" y1="66" x2="74" y2="64.1"/>
	<circle class="st7" cx="73.5" cy="63.8" r="0.6"/>
	<text transform="matrix(1 0 0 1 70.1182 68.9658)" class="st8 st9 st10">OPEN</text>
	<line class="st5" x1="17.3" y1="19.8" x2="81.7" y2="19.8"/>
</g>
</svg>
