<?xml version="1.0" encoding="utf-8"?>
<!-- Generator: Adobe Illustrator 22.0.1, SVG Export Plug-In . SVG Version: 6.00 build 0)  -->
<svg version="1.1" id="Layer_1" xmlns="http://www.w3.org/2000/svg" xmlns:xlink="http://www.w3.org/1999/xlink" x="0px" y="0px"
	 viewBox="0 0 100 100" style="enable-background:new 0 0 100 100;" xml:space="preserve">
<style type="text/css">
	.st0{fill:none;stroke:#FFFD03;stroke-width:0.7632;stroke-miterlimit:10;}
	.st1{fill:#CACACA;}
	.st2{fill:#FFFFFF;}
	.st3{fill:none;stroke:#959595;stroke-width:0.7632;stroke-miterlimit:10;}
	.st4{fill:none;stroke:#FFFFFF;stroke-width:0.5724;stroke-miterlimit:10;}
	.st5{fill:#EB2B2F;}
	.st6{fill:#ECD015;}
	.st7{fill:#3BB14A;}
	.st8{fill:#B9C9D1;}
	.st9{fill:#EBEBEB;stroke:#959595;stroke-width:0.3816;stroke-linejoin:round;stroke-miterlimit:10;}
	.st10{fill:#ACACAC;}
	.st11{fill:none;stroke:#FFFFFF;stroke-width:2.2896;stroke-linejoin:round;stroke-miterlimit:10;}
</style>
<g>
	<g id="XMLID_2_">
		<g>
			<path class="st1" d="M4.4,12.3c0-0.6,0.5-1.2,1.2-1.2h88.9c0.6,0,1.2,0.5,1.2,1.2v11.9h-91H4.4V12.3z"/>
			<path class="st2" d="M4.4,87.7V24.2h0.2h91v63.5c0,0.6-0.5,1.2-1.2,1.2H5.6C4.9,88.9,4.4,88.4,4.4,87.7z"/>
		</g>
		<g>
			<path class="st3" d="M95.6,24.2v63.5c0,0.6-0.5,1.2-1.2,1.2H5.6c-0.6,0-1.2-0.5-1.2-1.2V24.2V12.3c0-0.6,0.5-1.2,1.2-1.2h88.9
				c0.6,0,1.2,0.5,1.2,1.2V24.2z"/>
			<polyline class="st3" points="4.6,24.2 95.6,24.2 95.6,24.2 			"/>
		</g>
	</g>
	<path class="st4" d="M84.3,19.4H44.1c-0.9,0-1.5-0.7-1.5-1.5c0-0.9,0.7-1.5,1.5-1.5h40.2c0.9,0,1.5,0.7,1.5,1.5
		C85.8,18.7,85.2,19.4,84.3,19.4z"/>
	<ellipse class="st5" cx="13.3" cy="17.9" rx="1.8" ry="1.8"/>
	<ellipse class="st6" cx="20.1" cy="17.9" rx="1.8" ry="1.8"/>
	<ellipse class="st7" cx="26.4" cy="17.9" rx="1.8" ry="1.8"/>
	<rect x="47" y="39.6" class="st8" width="38.2" height="4.5"/>
	<rect x="47" y="49.4" class="st8" width="38.2" height="4.5"/>
	<rect x="47" y="59.2" class="st8" width="38.2" height="4.5"/>
	<circle class="st9" cx="81.7" cy="66.2" r="11"/>
	<g>
		<polygon class="st2" points="27.9,46.8 27.9,46.9 27.9,46.8 		"/>
	</g>
	<g>
		<polygon class="st2" points="27.9,46.8 27.9,46.9 27.9,46.8 		"/>
	</g>
	<g>
		<polygon class="st2" points="27.9,46.8 27.9,46.9 27.9,46.8 		"/>
	</g>
	<g>
		<g>
			<polygon class="st10" points="24.8,46.7 24.8,46.7 24.8,46.7 			"/>
			<polygon class="st10" points="21.7,41.7 27.9,41.7 25.6,45.5 24.8,46.3 24,45.5 			"/>
			<polygon class="st10" points="29.1,39.7 28.9,40 28.3,41.1 21.4,41.1 20.7,40 20.5,39.7 			"/>
			<polygon class="st10" points="28,46.4 26.3,45.5 29.4,40.3 29.6,40 30.5,41.7 30.4,42 			"/>
			<polygon class="st10" points="19.3,42 19.1,41.7 20,40 20.2,40.4 23.3,45.5 21.6,46.4 			"/>
			<polygon class="st10" points="38,49.5 33.9,52.8 32.2,50.3 32.1,68.2 17.5,68.2 17.4,50.3 15.8,52.8 11.6,49.5 16.3,43 
				18.6,42.1 18.8,42.4 21.3,47.2 23.7,46 24.5,46.9 24.5,50.6 25.2,50.6 25.2,46.9 26,46 28.3,47.2 30.9,42.4 31,42.1 33.4,43 			
				"/>
			<path class="st10" d="M29.8,39.7L29.6,40l-0.2,0.3l0.9,1.7l0.2-0.3l0.2-0.4L29.8,39.7z M33.6,42.8l-2.4-0.9L31,42.1l-0.2,0.3
				l2.3,0.9l4.5,6.2l-3.7,2.9l-2-3.2l-0.1,18.6H17.9l-0.1-18.6l-2,3.2L12,49.4l4.5-6.2l2.3-0.9l-0.1-0.3l-0.2-0.3l-2.4,0.9l-4.9,6.8
				l4.7,3.8l1.3-2l0.1,17.1h15.2l0.1-17.1l1.3,2l4.7-3.8L33.6,42.8z M20,40l-0.2-0.3l-0.9,1.6l0.2,0.3l0.2,0.3l0.9-1.7L20,40z
				 M20.3,39.4l0.2,0.3l0.2,0.3h8.2l0.2-0.3l0.2-0.3H20.3z"/>
		</g>
		<ellipse class="st2" cx="25.5" cy="48.1" rx="0.2" ry="0.2"/>
		<ellipse class="st2" cx="25.5" cy="49.1" rx="0.2" ry="0.2"/>
		<ellipse class="st2" cx="25.5" cy="50.1" rx="0.2" ry="0.2"/>
	</g>
	<line class="st11" x1="81.7" y1="61.4" x2="81.7" y2="71.4"/>
	<line class="st11" x1="77.3" y1="66.4" x2="85.8" y2="66.4"/>
</g>
</svg>
