<?xml version="1.0" encoding="utf-8"?>
<!-- Generator: Adobe Illustrator 22.0.1, SVG Export Plug-In . SVG Version: 6.00 build 0)  -->
<svg version="1.1" id="Layer_1" xmlns="http://www.w3.org/2000/svg" xmlns:xlink="http://www.w3.org/1999/xlink" x="0px" y="0px"
	 viewBox="0 0 100 100" style="enable-background:new 0 0 100 100;" xml:space="preserve">
<style type="text/css">
	.st0{fill:#CACACA;stroke:#959595;stroke-width:0.86;stroke-miterlimit:10;}
	.st1{fill:#F3F3F3;stroke:#959595;stroke-width:0.86;stroke-miterlimit:10;}
	.st2{fill:#F3F3F3;}
	.st3{fill:#AAAAAA;stroke:#959595;stroke-width:0.86;stroke-miterlimit:10;}
	.st4{fill:#D3D5D4;stroke:#FFFFFF;stroke-width:1.7199;stroke-miterlimit:10;}
	.st5{fill:#AAAAAA;}
	.st6{fill:#F2D57D;stroke:#959595;stroke-width:0.86;stroke-miterlimit:10;}
	.st7{fill:#EFDFA7;stroke:#FFFFFF;stroke-width:1.7199;stroke-miterlimit:10;}
	.st8{fill:#D39F00;}
	.st9{font-family:'HelveticaNeue-Medium';}
	.st10{font-size:18.153px;}
</style>
<g>
	<rect x="4.8" y="43.5" class="st0" width="86.1" height="47.3"/>
	<path class="st1" d="M9.3,77.9V55.8c0.6,0.2,1.2,0.3,1.8,0.3c3.5,0,6.3-2.8,6.3-6.3c0-0.8-0.1-1.5-0.4-2.2h69.4v30.6
		c-0.7-0.3-1.5-0.4-2.3-0.4c-3.5,0-6.3,2.8-6.3,6.3c0,0.9,0.2,1.8,0.6,2.6H16.8c0.4-0.8,0.6-1.8,0.6-2.7c0-3.5-2.8-6.3-6.3-6.3
		C10.5,77.6,9.9,77.7,9.3,77.9z"/>
	<circle class="st0" cx="22.2" cy="67.1" r="4.6"/>
	<circle class="st0" cx="73.8" cy="67.1" r="4.6"/>
	<circle class="st0" cx="47.8" cy="67.1" r="14.9"/>
	<g>
		<g>
			<path class="st2" d="M42.6,72.9l1.3-1.9c1.1,0.9,2.3,1.5,3.6,1.5c1.6,0,2.3-0.8,2.3-2.1c0-3.2-6.6-2.8-6.6-7.3
				c0-2.6,1.9-4.4,4.7-4.4c2,0,3.3,0.8,4.4,2l-1.4,1.6c-0.9-0.8-1.6-1.3-2.8-1.3c-1.3,0-2.1,0.7-2.1,1.9c0,2.9,6.6,2.3,6.6,7.3
				c0,2.7-1.8,4.6-5,4.6C45.9,74.8,43.9,74.1,42.6,72.9z M46.8,56.4h1.9v3.3h-1.9V56.4z M46.8,73.7h1.9v3.5h-1.9V73.7z"/>
		</g>
	</g>
	<circle class="st3" cx="60.4" cy="32.3" r="23.1"/>
	<circle class="st4" cx="60.4" cy="32.3" r="19.1"/>
	<g>
		<g>
			<path class="st5" d="M51.5,35.9l1-1.3c0.7,0.7,1.5,1.2,2.7,1.2c1.3,0,2.2-0.8,2.2-2.2c0-1.4-0.9-2.2-2.1-2.2
				c-0.7,0-1.2,0.2-1.8,0.6l-1-0.6l0.3-5.7H59v1.8h-4.4l-0.2,2.8c0.5-0.2,0.9-0.4,1.5-0.4c2,0,3.6,1.1,3.6,3.6c0,2.5-1.9,4-4.1,4
				C53.6,37.5,52.4,36.8,51.5,35.9z"/>
			<path class="st5" d="M61.1,31.5c0-3.9,1.5-5.9,3.9-5.9c2.4,0,3.9,2.1,3.9,5.9c0,3.9-1.5,6-3.9,6C62.7,37.5,61.1,35.4,61.1,31.5z
				 M67,31.5c0-3.3-0.8-4.3-1.9-4.3c-1.1,0-1.9,1-1.9,4.3c0,3.3,0.8,4.4,1.9,4.4C66.2,35.9,67,34.8,67,31.5z"/>
		</g>
	</g>
	<circle class="st6" cx="75" cy="46.7" r="20.2"/>
	<circle class="st7" cx="75" cy="46.7" r="16"/>
	<text transform="matrix(1 0 0 1 69.9122 52.8408)" class="st8 st9 st10">1</text>
</g>
</svg>
