<?xml version="1.0" encoding="utf-8"?>
<!-- Generator: Adobe Illustrator 22.0.1, SVG Export Plug-In . SVG Version: 6.00 build 0)  -->
<svg version="1.1" id="Layer_1" xmlns="http://www.w3.org/2000/svg" xmlns:xlink="http://www.w3.org/1999/xlink" x="0px" y="0px"
	 viewBox="0 0 100 100" style="enable-background:new 0 0 100 100;" xml:space="preserve">
<style type="text/css">
	.st0{fill:none;stroke:#959595;stroke-width:2;stroke-miterlimit:10;}
</style>
<g>
	<g>
		<path class="st0" d="M67.7,61.8C62,50.1,55.1,38.9,53,35.5c-0.7-1.1-0.2-1.3,0.1-2c1.9-2.7,3.4-5,4.9-7.7c1-1.9,2.3-4.1,2.2-6.3
			c-0.1-1.8-1.1-3.4-2-4.8c-0.8-1.3-2.2-2.8-2.2-4.4c0-1.1,0-2.2,0-3.3c0-1,0.2-2,0.1-3c0-0.9-0.5-2.1-1.6-1.9
			c-1.1,0.2-1.3,1.5-1.3,2.5c0,1-0.1,1.9-0.1,2.9c-0.1,1.4,0.1,2.8-0.4,4.1c-0.5,1.2-1.3,2.3-2.1,3.3c-1.6,1.8-3.8,3.1-6.3,3.2
			c-1.8,0.1-3.8-1-5.2-2.1c-2-1.7-3.4-3.6-3.5-6.2c-0.1-1.7-0.2-3.4-0.3-5.2c0-1.3-0.4-2-0.9-2.2c-0.4-0.3-1.1-0.2-1.5,0
			c-0.9,0.6-0.4,3.5-0.4,4.5c0,1.1,0,2.3,0,3.4c0,1.6-1.4,3.1-2.2,4.4c-1,1.4-1.9,3-2,4.8c-0.1,2.2,1.1,4.5,2.2,6.3
			c1.5,2.7,3,5,4.9,7.7c0.3,0.7,0.8,0.9,0.1,2c-2.7,4.2-5.2,8.5-7.6,12.9c-3.1,5.6-6.1,11.2-8.8,17.1C16.4,70.7,14,76.2,12.7,82
			c-0.6,2.5-1,5.3-0.3,7.8c0.3,1.1,3.7,1.7,4.6,1.9c3.3,0.9,6.6,1.5,9.9,2.1c3.2,0.5,6.5,1,9.8,1.3c1.4,0.1,2.8,0.2,4.2,0.3
			c1.1,0,2.2,0,3.2,0c4.9-0.1,9.8-0.5,14.7-1.2"/>
		<line class="st0" x1="52.7" y1="34.1" x2="35.6" y2="34.1"/>
	</g>
	<path class="st0" d="M69.8,61.7c-0.7,0-1.4,0-2.1,0.1c-9,1-16,8.7-16,18c0,4.8,1.9,9.2,4.9,12.4c3.3,3.5,8,5.7,13.1,5.7
		c10,0,18.1-8.1,18.1-18.1C87.9,69.8,79.8,61.7,69.8,61.7z"/>
	<g>
		<line class="st0" x1="69.8" y1="71.5" x2="69.8" y2="86.9"/>
		<line class="st0" x1="63.3" y1="79.2" x2="77" y2="79.2"/>
	</g>
</g>
</svg>
