<?xml version="1.0" encoding="utf-8"?>
<!-- Generator: Adobe Illustrator 22.0.1, SVG Export Plug-In . SVG Version: 6.00 build 0)  -->
<svg version="1.1" id="Layer_1" xmlns="http://www.w3.org/2000/svg" xmlns:xlink="http://www.w3.org/1999/xlink" x="0px" y="0px"
	 viewBox="0 0 100 100" style="enable-background:new 0 0 100 100;" xml:space="preserve">
<style type="text/css">
	.st0{fill:none;stroke:#919191;stroke-width:2;stroke-linecap:round;stroke-linejoin:round;stroke-miterlimit:10;}
	.st1{fill:#008942;}
	.st2{font-family:'AcuminPro-Regular';}
	.st3{font-size:18.9308px;}
</style>
<g>
	<g>
		<polyline class="st0" points="58.7,73.6 66.9,77.1 66.9,48 66.9,19 32.9,33.5 26.2,36.4 26.1,36.4 26.2,59.7 32.9,62.6 33.1,62.7 
					"/>
		<path class="st0" d="M26.2,36.4L26.2,36.4H12.3h-0.6c-4.2,0-7.7,3.5-7.7,7.7v1.7v4.4v1.2c0,4.2,3.5,7.7,7.7,7.7h0.6h12.4h1.4"/>
		<path class="st0" d="M12.3,59.1v14.2c0,2.1,1.7,3.9,3.9,3.9h6.1c2.1,0,3.9-1.7,3.9-3.9V59.7v-0.6V36.4v0"/>
		<line class="st0" x1="82.5" y1="37.6" x2="91.3" y2="32.3"/>
		<line class="st0" x1="85.2" y1="48" x2="95.9" y2="48"/>
		<line class="st0" x1="82.3" y1="58.2" x2="91.9" y2="63.9"/>
		<path class="st0" d="M52.1,78.3c-2.1,1.6-4.8,2.6-7.7,2.6c-7,0-12.6-5.6-12.6-12.6c0-7,5.6-12.6,12.6-12.6c7,0,12.6,5.6,12.6,12.6
			c0,0.1,0,0.1,0,0.2"/>
		<polygon class="st0" points="61.1,75 58.7,78 58.7,78.1 56.4,81 54,78 54,78 53.3,77.2 51.6,75 54,75 54,69.9 58.7,69.9 58.7,75 
					"/>
	</g>
	<text transform="matrix(1 0 0 1 39.482 74.1135)" class="st1 st2 st3">$</text>
</g>
</svg>
