<?xml version="1.0" encoding="utf-8"?>
<!-- Generator: Adobe Illustrator 22.0.1, SVG Export Plug-In . SVG Version: 6.00 build 0)  -->
<svg version="1.1" id="Layer_1" xmlns="http://www.w3.org/2000/svg" xmlns:xlink="http://www.w3.org/1999/xlink" x="0px" y="0px"
	 viewBox="0 0 100 100" style="enable-background:new 0 0 100 100;" xml:space="preserve">
<style type="text/css">
	.st0{fill:none;stroke:#959595;stroke-width:2;stroke-linecap:round;stroke-linejoin:round;stroke-miterlimit:10;}
	.st1{fill:none;stroke:#959595;stroke-width:2;stroke-miterlimit:10;}
</style>
<path class="st0" d="M71,32.9c-4.8-10.6-17.4-18.2-32.2-18.2c-18.9,0-34.3,12.4-34.3,27.8c0,7.6,3.8,14.5,9.9,19.5L8.8,74.1
	l16.1-6.3c3.8,1.4,8,2.2,12.4,2.4"/>
<path class="st0" d="M78.4,80.5c-4.2,1.8-9,2.7-14,2.7c-17.2,0-31.1-11.4-31.1-25.5s13.9-25.5,31.1-25.5c17.2,0,31.1,11.4,31.1,25.5
	c0,7.2-3.6,13.7-9.5,18.3l4.5,9.2l0,0l0,0L78.4,80.5L78.4,80.5"/>
<circle class="st1" cx="49.3" cy="59.1" r="4.3"/>
<circle class="st1" cx="64.4" cy="59.1" r="4.3"/>
<circle class="st1" cx="79.8" cy="59.1" r="4.3"/>
</svg>
