<?xml version="1.0" encoding="utf-8"?>
<!-- Generator: Adobe Illustrator 22.0.1, SVG Export Plug-In . SVG Version: 6.00 build 0)  -->
<svg version="1.1" id="Layer_1" xmlns="http://www.w3.org/2000/svg" xmlns:xlink="http://www.w3.org/1999/xlink" x="0px" y="0px"
	 viewBox="0 0 100 100" style="enable-background:new 0 0 100 100;" xml:space="preserve">
<style type="text/css">
	.st0{fill:#FFFFFF;stroke:#959595;stroke-width:2;stroke-miterlimit:10;}
</style>
<g>
	<line class="st0" x1="43.5" y1="80.2" x2="56.5" y2="80.2"/>
	<circle class="st0" cx="32.8" cy="19.8" r="10.1"/>
	<circle class="st0" cx="67.4" cy="19.8" r="10.1"/>
	<circle class="st0" cx="15.4" cy="50" r="10.1"/>
	<circle class="st0" cx="33.4" cy="80.2" r="10.1"/>
	<circle class="st0" cx="66.6" cy="80.2" r="10.1"/>
	<circle class="st0" cx="50.6" cy="50" r="10.1"/>
	<circle class="st0" cx="84.6" cy="50" r="10.1"/>
	<line class="st0" x1="27.5" y1="28.4" x2="20.4" y2="41.2"/>
	<line class="st0" x1="57.3" y1="19.8" x2="42.9" y2="19.8"/>
	<line class="st0" x1="25.5" y1="50" x2="40.5" y2="50"/>
	<line class="st0" x1="79.7" y1="58.8" x2="71.7" y2="71.5"/>
	<line class="st0" x1="79.8" y1="41.1" x2="72.4" y2="28.5"/>
	<line class="st0" x1="74.5" y1="50" x2="60.6" y2="50"/>
	<line class="st0" x1="45.7" y1="41.2" x2="37.9" y2="28.5"/>
	<line class="st0" x1="62.7" y1="28.7" x2="55.6" y2="41.3"/>
	<line class="st0" x1="45.7" y1="58.8" x2="38.2" y2="71.3"/>
	<line class="st0" x1="62.1" y1="71.2" x2="55.3" y2="58.9"/>
	<line class="st0" x1="28.4" y1="71.4" x2="20.5" y2="58.7"/>
</g>
</svg>
