<?xml version="1.0" encoding="utf-8"?>
<!-- Generator: Adobe Illustrator 22.0.1, SVG Export Plug-In . SVG Version: 6.00 build 0)  -->
<svg version="1.1" id="Layer_1" xmlns="http://www.w3.org/2000/svg" xmlns:xlink="http://www.w3.org/1999/xlink" x="0px" y="0px"
	 viewBox="0 0 100 100" style="enable-background:new 0 0 100 100;" xml:space="preserve">
<style type="text/css">
	.st0{opacity:0.43;fill:#EAEAEA;}
	.st1{fill:#A08A6D;}
	.st2{fill:#CBB89B;}
	.st3{fill:#D1BC9B;}
	.st4{fill:#E7D6BD;}
	.st5{fill:#B29D89;}
</style>
<g>
	<circle class="st0" cx="50" cy="50" r="49.5"/>
	<g>
		<g>
			<polyline class="st1" points="79,26.9 48,34 21,26.9 21,66.5 21,66.5 48,77.9 79,64.7 			"/>
		</g>
		<g>
			<path class="st2" d="M48.2,34c0.2,1.8,0.3,3.7,0.4,5.5l0.2,5.5c0.1,3.7,0.1,7.3,0.2,11c-0.1,3.7-0.1,7.3-0.2,11l-0.2,5.5
				c-0.1,1.8-0.2,3.7-0.4,5.5h-0.1l0-22L48.2,34L48.2,34z"/>
		</g>
		<polygon class="st3" points="21,26.9 50,22.1 79,26.9 48.2,34 		"/>
		<polyline class="st4" points="68.9,29.2 58.5,27 58.5,27 68.2,25.1 59.8,23.8 50.8,25.5 41.4,23.6 32.9,25 32.9,25 41.6,27.2 
			30.6,29.3 37.3,31.1 48.4,29 48.4,29 48.4,29 58.5,31.6 58.5,31.6 		"/>
		<g>
			<path class="st4" d="M21,26.8c2.4-0.1,4.8,0.1,7.1,0.5c1.2,0.1,2.3,0.4,3.5,0.6c1.1,0.2,2.3,0.5,3.4,0.8c1.1,0.3,2.3,0.6,3.4,1
				c1.1,0.4,2.2,0.7,3.3,1.2c2.2,0.8,4.4,1.8,6.5,3L48.2,34l-13.6-3.4L21,27L21,26.8z"/>
		</g>
		<g>
			<path class="st4" d="M72.6,28.4c0.5-0.5,0.9-0.8,1.4-1c0.5-0.3,1-0.4,1.6-0.5c0.5-0.1,1.1-0.2,1.6-0.2c0.6,0,1.1,0.1,1.7,0.3
				l0,0.1l-3.2,0.8L72.6,28.4L72.6,28.4z"/>
		</g>
		<polyline class="st5" points="38.1,31.3 38.1,36.9 38.1,36.8 30.8,34.8 30.8,34.8 30.8,29.5 		"/>
		<polyline class="st5" points="58.5,31.6 58.5,40.6 68.9,37.1 68.9,29.2 		"/>
	</g>
</g>
</svg>
