<?xml version="1.0" encoding="utf-8"?>
<!-- Generator: Adobe Illustrator 22.0.1, SVG Export Plug-In . SVG Version: 6.00 build 0)  -->
<svg version="1.1" id="Layer_1" xmlns="http://www.w3.org/2000/svg" xmlns:xlink="http://www.w3.org/1999/xlink" x="0px" y="0px"
	 viewBox="0 0 100 100" style="enable-background:new 0 0 100 100;" xml:space="preserve">
<style type="text/css">
	.st0{fill:none;stroke:#4B7EC0;stroke-linecap:round;stroke-linejoin:round;stroke-miterlimit:10;}
</style>
<g>
	<g>
		<path class="st0" d="M29.8,93.1c2.1,1.2,4.7,1.2,6.8,0l23.8-13.6c2.1-1.2,3.4-3.5,3.4-5.9V46.4c0-2.4-1.3-4.7-3.4-5.9L36.6,26.8
			c-2.1-1.2-4.7-1.2-6.8,0L6,40.5c-2.1,1.2-3.4,3.5-3.4,5.9v27.3c0,2.4,1.3,4.7,3.4,5.9L29.8,93.1z"/>
		<path class="st0" d="M33.2,94.1V60"/>
		<path class="st0" d="M3.6,43l26.2,16.1c2.1,1.2,4.7,1.2,6.8,0L62.9,43"/>
		<path class="st0" d="M17.9,33.7l30.7,17.5"/>
	</g>
	<g>
		<path class="st0" d="M74.3,31.9c-0.3-1.4-1.4-2.4-2.8-2.8l-11.8-3c-0.5-0.1-0.8-0.7-0.7-1.2c0.1-0.3,0.3-0.6,0.7-0.7l11.8-3
			c1.4-0.3,2.4-1.4,2.8-2.8l3-11.8C77.4,6.1,78,5.8,78.5,6c0.3,0.1,0.6,0.3,0.7,0.7l3,11.8c0.3,1.4,1.4,2.4,2.8,2.8l11.8,3
			c0.5,0.1,0.8,0.7,0.7,1.2c-0.1,0.3-0.3,0.6-0.7,0.7l-11.8,3c-1.4,0.3-2.4,1.4-2.8,2.8l-3,11.8c-0.1,0.5-0.7,0.8-1.2,0.7
			c-0.3-0.1-0.6-0.3-0.7-0.7L74.3,31.9z"/>
		<path class="st0" d="M93.6,7.9v7.7"/>
		<path class="st0" d="M97.4,11.7h-7.7"/>
		<path class="st0" d="M62.8,34.8v3.8"/>
		<path class="st0" d="M64.8,36.7h-3.8"/>
	</g>
</g>
</svg>
