<?xml version="1.0" encoding="utf-8"?>
<!-- Generator: Adobe Illustrator 22.0.1, SVG Export Plug-In . SVG Version: 6.00 build 0)  -->
<svg version="1.1" id="Layer_1" xmlns="http://www.w3.org/2000/svg" xmlns:xlink="http://www.w3.org/1999/xlink" x="0px" y="0px"
	 viewBox="0 0 100 100" style="enable-background:new 0 0 100 100;" xml:space="preserve">
<style type="text/css">
	.st0{fill:none;stroke:#4B7EC0;stroke-width:1.041;stroke-linecap:round;stroke-linejoin:round;stroke-miterlimit:10;}
	.st1{fill:#4B7EC0;}
</style>
<g>
	<g>
		<g>
			<path class="st0" d="M50.4,86.1c-0.6,0-1.3,0-1.9,0c-7.5,0-14.5-1.5-20.7-4L9.9,89.2l6.6-13.6c-8.6-6.8-14-16.4-14-27
				c0-20.8,20.6-37.7,46-37.7c20,0,37,10.4,43.3,25"/>
		</g>
		<circle class="st1" cx="37.3" cy="50.6" r="3.1"/>
		<circle class="st1" cx="48.8" cy="50.6" r="3.1"/>
		<circle class="st1" cx="59.6" cy="50.6" r="3.1"/>
	</g>
	<g>
		<path class="st0" d="M88.5,60.5v-8.9c0-4.9-4-8.9-8.9-8.9c-4.9,0-8.9,4-8.9,8.9v8.9"/>
		<path class="st0" d="M66.2,60.5H93c2.5,0,4.5,2,4.5,4.5v13.4c0,2.5-2,4.5-4.5,4.5H66.2c-2.5,0-4.5-2-4.5-4.5V64.9
			C61.7,62.5,63.7,60.5,66.2,60.5z"/>
	</g>
</g>
</svg>
