<?xml version="1.0" encoding="utf-8"?>
<!-- Generator: Adobe Illustrator 22.0.1, SVG Export Plug-In . SVG Version: 6.00 build 0)  -->
<svg version="1.1" id="Layer_1" xmlns="http://www.w3.org/2000/svg" xmlns:xlink="http://www.w3.org/1999/xlink" x="0px" y="0px"
	 viewBox="0 0 500 500" style="enable-background:new 0 0 500 500;" xml:space="preserve">
<style type="text/css">
	.st0{fill:none;stroke:#DADADA;stroke-width:6.4252;stroke-miterlimit:10;}
	.st1{fill:#DADADA;}
</style>
<g>
	<polyline class="st0" points="463.2,146.6 463.2,476 36.8,476 36.8,146.6 	"/>
	<polyline class="st1" points="140.6,474 140.6,271.9 341.3,271.9 341.3,474 	"/>
	<rect x="74" y="24" class="st1" width="345.1" height="47.6"/>
	<path class="st1" d="M73.6,85.3l-67.4,88c-6,7.9,2.8,17.1,16.4,17.1h125.2c8.8,0,16.4-4.1,18-9.7l26.4-94.9l-24,86.4
		c-2.6,9.5,8.7,18.3,23.6,18.3h110c17.1,0,30-10,27-20.9l-23.3-84.3l24,86.9c2.9,10.6,17.1,18.2,33.7,18.2h114.5
		c13.5,0,22.2-9.3,15.8-17.1L421,85.2"/>
</g>
</svg>
