<?xml version="1.0" encoding="utf-8"?>
<!-- Generator: Adobe Illustrator 22.0.1, SVG Export Plug-In . SVG Version: 6.00 build 0)  -->
<svg version="1.1" id="Layer_1" xmlns="http://www.w3.org/2000/svg" xmlns:xlink="http://www.w3.org/1999/xlink" x="0px" y="0px"
	 viewBox="0 0 500 500" style="enable-background:new 0 0 500 500;" xml:space="preserve">
<style type="text/css">
	.st0{fill:#DADADA;}
	.st1{fill:#FFFFFF;}
</style>
<g>
	<path class="st0" d="M205,396.5c0,24.7-20,44.7-44.7,44.7c-24.7,0-44.7-20-44.7-44.7c0-24.7,20-44.7,44.7-44.7
		C184.9,351.7,205,371.8,205,396.5"/>
	<path class="st1" d="M185.4,396.5c0,13.9-11.3,25.2-25.2,25.2c-13.9,0-25.2-11.3-25.2-25.2c0-13.9,11.3-25.2,25.2-25.2
		C174.1,371.3,185.4,382.6,185.4,396.5"/>
	<path class="st0" d="M441.3,396.5c0,24.7-20,44.7-44.7,44.7c-24.7,0-44.7-20-44.7-44.7c0-24.7,20-44.7,44.7-44.7
		C421.2,351.7,441.3,371.8,441.3,396.5"/>
	<path class="st1" d="M421.7,396.5c0,13.9-11.3,25.2-25.2,25.2c-13.9,0-25.2-11.3-25.2-25.2c0-13.9,11.3-25.2,25.2-25.2
		C410.4,371.3,421.7,382.6,421.7,396.5"/>
	<g>
		<path class="st0" d="M288.4,192.6V63.2c0-2.4-1.8-4.4-4-4.4H8c-2.2,0-4,2-4,4.4v129.4H288.4z"/>
		<path class="st0" d="M4,215.2v78.8c0,2.4,1.8,4.4,4,4.4h276.4c2.2,0,4-2,4-4.4v-78.8H4z"/>
	</g>
	<path class="st0" d="M4,322v54v4.5v8.7h2.5h4.1h95.8c5-27.8,27.2-48.8,53.9-48.8s48.8,21,53.9,48.8h128.6
		c5-27.8,27.2-48.8,53.9-48.8c26.6,0,48.8,21,53.9,48.8H496V226.9l-79-118.7h-98.6h-9.6V322H4z"/>
	<path class="st1" d="M448.6,214.7l-41.1-66.3h-63.2v66.3C344.4,214.7,447.1,212.9,448.6,214.7"/>
</g>
</svg>
