<?xml version="1.0" encoding="utf-8"?>
<!-- Generator: Adobe Illustrator 22.0.1, SVG Export Plug-In . SVG Version: 6.00 build 0)  -->
<svg version="1.1" id="Layer_1" xmlns="http://www.w3.org/2000/svg" xmlns:xlink="http://www.w3.org/1999/xlink" x="0px" y="0px"
	 viewBox="0 0 500 500" style="enable-background:new 0 0 500 500;" xml:space="preserve">
<style type="text/css">
	.st0{fill:#DADADA;}
</style>
<g>
	<path class="st0" d="M335,374.3l-15.3-43.1l-44-123.7c16.3-9,27.2-26.4,27.2-46.3c0-29.2-23.7-52.9-52.9-52.9s-52.9,23.7-52.9,52.9
		c0,19.4,10.5,36.4,26.1,45.6l-42,124.4l-14.6,43.1l-9.9,29.3L125.5,496h48.6l3.1-9.1c14.4-25.6,41.8-42.9,73.3-42.9
		c31,0,58.1,16.8,72.6,41.8l0,0l3.7,10.3h51.5l-32.8-92.3L335,374.3z M248.5,275.8l19.7,55.4h-38.4L248.5,275.8z M205.3,403.7
		l9.9-29.3h68.3l10.4,29.3H205.3z"/>
	<path class="st0" d="M324.7,222.8l32.7,32.7c22.1-25.2,35.5-58.1,35.5-94.3c0-37.6-14.5-71.8-38.3-97.3L322,96.5
		c15.4,17.1,24.8,39.8,24.8,64.7C346.8,184.6,338.5,206.1,324.7,222.8z"/>
	<path class="st0" d="M141.4,254l32.7-32.7c-13.1-16.5-20.9-37.4-20.9-60.1c0-24.2,8.9-46.3,23.5-63.2l-32.6-32.6
		c-23,25.3-36.9,59-36.9,95.9C107.1,196.6,120,229,141.4,254z"/>
	<path class="st0" d="M113.7,34.9L84.2,5.4c-38.3,40.7-61.7,95.5-61.7,155.8c0,58.8,22.3,112.4,58.9,152.8l29.6-29.6
		c-29.1-32.8-46.7-75.9-46.7-123.2C64.2,112.5,83,68.1,113.7,34.9z"/>
	<path class="st0" d="M414.5,4L385,33.5c31.5,33.3,50.8,78.2,50.8,127.7c0,48-18.2,91.7-48,124.7l29.5,29.5
		c37.4-40.5,60.2-94.7,60.2-154.2C477.5,100.2,453.6,44.9,414.5,4z"/>
</g>
</svg>
