<?xml version="1.0" encoding="utf-8"?>
<!-- Generator: Adobe Illustrator 22.0.1, SVG Export Plug-In . SVG Version: 6.00 build 0)  -->
<svg version="1.1" id="Layer_1" xmlns="http://www.w3.org/2000/svg" xmlns:xlink="http://www.w3.org/1999/xlink" x="0px" y="0px"
	 viewBox="0 0 500 500" style="enable-background:new 0 0 500 500;" xml:space="preserve">
<style type="text/css">
	.st0{fill:none;stroke:#404041;stroke-width:15.3005;stroke-linejoin:round;stroke-miterlimit:10;}
	.st1{fill:none;stroke:#DADADA;stroke-width:4.3716;stroke-miterlimit:10;}
	.st2{fill:none;stroke:#DADADA;stroke-width:4.3716;stroke-linecap:round;stroke-miterlimit:10;}
	.st3{fill:none;stroke:#404041;stroke-width:4.3716;stroke-linecap:round;stroke-miterlimit:10;}
	.st4{fill:#DADADA;stroke:#DADADA;stroke-width:8.5702;stroke-linecap:round;stroke-linejoin:round;stroke-miterlimit:10;}
</style>
<g>
	<line class="st0" x1="124.8" y1="221.6" x2="124.8" y2="221.6"/>
	<path class="st1" d="M144.2,285.7l-30.9,39.3c-3.3,4.1-9.3,4.9-13.4,1.6l-11-8.7c-4.2-3.3-4.9-9.3-1.6-13.4l12.3-15.6l18.6-23.7
		c3.3-4.2,9.3-4.9,13.4-1.6l11.1,8.7C146.8,275.5,147.5,281.5,144.2,285.7z"/>
	<line class="st1" x1="266.9" y1="371.2" x2="228" y2="346.2"/>
	<path class="st2" d="M247.1,319l46.6,30c4.7,3,6.1,9.3,3,14l-7,10.8c-3,4.7-9.3,6.1-14,3.1l-8.9-5.7"/>
	<path class="st2" d="M267.3,290l53.8,34.6c5.8,3.7,7.5,11.5,3.8,17.3l-5.3,8.3c-3.8,5.8-11.5,7.5-17.3,3.8l-55-35.4"/>
	<path class="st1" d="M159.7,273.3c2.5,0,4.9,0.8,7,2.4l8.2,6.4c4.9,3.9,5.8,11,1.9,16l-5.9,7.5l-39.2,49.8
		c-3.9,4.9-11.1,5.8-16,1.9l-8.2-6.4c-4.9-3.9-5.8-11.1-1.9-16l38.8-49.3l6.4-8.1C153,274.8,156.4,273.3,159.7,273.3z"/>
	<path class="st1" d="M171.5,306.1c3.4-4.4,9.8-5.1,14.2-1.7l7.2,5.6c4.4,3.5,5.1,9.8,1.7,14.2l-6.7,8.5l-32.6,41.4
		c-3.4,4.4-9.8,5.2-14.2,1.7l-7.2-5.6c-4.4-3.5-5.1-9.8-1.7-14.2L171.5,306.1z"/>
	<path class="st1" d="M216.6,346.4c0.3,2.5-0.4,5.2-2.1,7.3l-13.1,16.6l-19.7,25c-3.4,4.3-9.7,5.1-14.1,1.7l-10.3-8.1
		c-4.3-3.4-5.1-9.7-1.7-14.1l32.7-41.7c3.4-4.3,9.7-5.1,14.1-1.7l10.3,8.1C215.1,341.4,216.3,343.8,216.6,346.4z"/>
	<polyline class="st1" points="69.1,242.5 79.8,249.4 99.5,288.9 	"/>
	<path class="st2" d="M267.8,289.4l53.6,35l2.1,1.4c0,0,14,9.2,21.7-0.9c6.8-9-1.2-22.5-5.7-28.8c-1.5-2.1-2.6-3.4-2.6-3.4
		l-47.2-34.8l-59-43.5c-5.6,3.6-38.9,48-58.3,36.6c-2.2-1.3-4.2-3.3-6-6.2C161.3,236.5,182,213,182,213l34.6-34.6c0,0-0.1,0-0.2,0
		c-3-0.5-42.1-6.7-53-6.7c-8.6,0-30.4-8.6-40.5-12.8"/>
	<path class="st1" d="M266.9,371.2c0.9,2.8,1.9,7.8,0.5,13.7c-2.3,9.7-12.7,8-12.7,8l-28.4-7.5l-24.7-15"/>
	<line class="st3" x1="266.9" y1="371.2" x2="266.9" y2="371.2"/>
	<path class="st1" d="M216.1,178.6c0,0,0.1-0.1,0.3-0.2c1.7-1.4,10.8-8.4,27.7-13.1c1.4-0.4,114.5,19.7,114.5,19.7l18.6-8.2"/>
	<polyline class="st1" points="339.4,296.2 339.5,296.1 359.4,267.8 403.6,254.1 	"/>
	<polygon class="st4" points="69.1,242.5 66.6,246.3 4,209.6 54.2,100.8 125.2,155.3 122.9,158.9 121.5,160.9 	"/>
	<polygon class="st4" points="377.3,176.7 374.3,167.9 442,141.7 496,248.7 409.2,270.4 407,264 403.6,254.1 	"/>
</g>
</svg>
