<?xml version="1.0" encoding="utf-8"?>
<!-- Generator: Adobe Illustrator 22.0.1, SVG Export Plug-In . SVG Version: 6.00 build 0)  -->
<svg version="1.1" id="Layer_1" xmlns="http://www.w3.org/2000/svg" xmlns:xlink="http://www.w3.org/1999/xlink" x="0px" y="0px"
	 viewBox="0 0 500 500" style="enable-background:new 0 0 500 500;" xml:space="preserve">
<style type="text/css">
	.st0{fill:#DADADA;}
	.st1{fill:#DADADA;stroke:#FFFFFF;stroke-width:6;stroke-miterlimit:10;}
	.st2{fill:none;stroke:#FFFFFF;stroke-width:6;stroke-miterlimit:10;}
	.st3{fill:none;stroke:#DADADA;stroke-width:26.5747;stroke-miterlimit:10;}
</style>
<g id="Layer_2_1_">
	<g id="Layer_1-2">
		<path class="st0" d="M36.7,115.5h426.5c11.9,0,22.3,9.5,22.3,22.3v276.9c0,11.9-9.5,22.3-22.3,22.3H36.7
			c-11.9,0-22.3-9.5-22.3-22.3V137.8C14.5,125.9,24.8,115.5,36.7,115.5z"/>
		<path class="st1" d="M205.4,242.8h89.9c2.4,0,4.8,2.4,4.8,4.8v58.1c0,2.4-2.4,4.8-4.8,4.8h-89.9c-2.4,0-4.8-2.4-4.8-4.8v-58.1
			C200.7,244.4,202.3,242.8,205.4,242.8z"/>
		<line class="st2" x1="485.5" y1="276.3" x2="299.3" y2="276.3"/>
		<line class="st2" x1="200.7" y1="276.3" x2="14.5" y2="276.3"/>
		<path class="st3" d="M140.2,115.5v-12.7c0-22.3,17.5-39.8,39.8-39.8H320c22.3,0,39.8,17.5,39.8,39.8v12.7"/>
	</g>
</g>
</svg>
